
<!-- Generator: visioncortex VTracer 0.6.4 -->
<svg version="1.1" xmlns="http://www.w3.org/2000/svg" viewBox="0 0 500 500" preserveAspectRatio="xMidYMid meet">
<path d="M0 0 C1.067 -0.005 2.135 -0.01 3.235 -0.015 C6.8 -0.026 10.365 -0.009 13.931 0.009 C16.492 0.006 19.053 0.003 21.615 -0.003 C27.846 -0.012 34.077 -0.002 40.308 0.017 C47.581 0.038 54.853 0.037 62.126 0.036 C75.12 0.035 88.113 0.054 101.107 0.083 C113.678 0.111 126.25 0.125 138.822 0.124 C139.594 0.124 140.367 0.124 141.163 0.124 C141.935 0.124 142.706 0.123 143.501 0.123 C157.852 0.122 172.203 0.134 186.554 0.152 C191.606 0.158 196.658 0.16 201.71 0.161 C208.539 0.162 215.367 0.175 222.195 0.195 C224.688 0.201 227.181 0.203 229.674 0.202 C261.72 0.193 287.371 2.537 312.181 24.494 C313.023 25.238 313.865 25.982 314.732 26.748 C317.23 28.982 319.707 31.235 322.181 33.494 C323.888 35.038 325.597 36.579 327.306 38.119 C328.139 38.87 328.972 39.62 329.83 40.393 C331.848 42.196 333.883 43.975 335.931 45.744 C338.479 47.953 340.958 50.218 343.404 52.537 C355.799 64.287 366.234 72.098 383.169 75.832 C397.737 79.068 413.904 82.796 422.752 95.803 C428.836 106.668 429.228 119.469 427.181 131.494 C427.841 131.494 428.501 131.494 429.181 131.494 C431.937 133.932 432.189 135.567 432.556 139.244 C432.389 143.798 431.695 148.259 430.931 152.744 C430.822 153.43 430.713 154.115 430.601 154.822 C429.759 159.343 428.441 162.235 425.181 165.494 C424.521 165.494 423.861 165.494 423.181 165.494 C423.181 166.154 423.181 166.814 423.181 167.494 C421.852 167.984 420.517 168.46 419.181 168.932 C418.439 169.199 417.696 169.466 416.931 169.741 C409.456 171.79 401.595 171.78 393.896 172.1 C392.684 172.156 392.684 172.156 391.447 172.213 C390.723 172.244 389.999 172.274 389.253 172.305 C387.143 172.498 385.219 172.927 383.181 173.494 C382.872 175.196 382.872 175.196 382.556 176.932 C380.475 185.155 375.072 191.727 368.181 196.494 C361.823 200.1 356.244 201.15 348.994 201.057 C348.131 201.081 347.268 201.105 346.379 201.129 C340.17 201.115 337.552 199.878 333.181 195.494 C332.356 195.041 331.531 194.587 330.681 194.119 C323.95 189.744 320.271 183.14 318.181 175.494 C318.155 173.828 318.152 172.161 318.181 170.494 C317.523 170.495 316.865 170.496 316.187 170.497 C294.852 170.527 273.517 170.546 252.181 170.557 C251.371 170.557 250.561 170.558 249.727 170.558 C208.918 170.58 168.112 170.579 127.306 169.994 C126.471 169.983 125.636 169.971 124.776 169.958 C115.244 169.82 105.713 169.668 96.181 169.494 C96.043 170.752 95.904 172.01 95.761 173.306 C94.847 181.59 89.327 189.959 83.056 195.307 C81.181 196.494 81.181 196.494 79.181 196.494 C79.181 197.154 79.181 197.814 79.181 198.494 C72.241 200.821 65.947 201.779 58.681 201.307 C57.999 201.265 57.317 201.222 56.615 201.178 C49.733 200.603 46.826 198.463 42.181 193.494 C41.609 192.916 41.037 192.337 40.447 191.741 C34.948 185.924 31.293 179.835 31.084 171.686 C31.116 170.633 31.148 169.58 31.181 168.494 C30.123 168.506 29.065 168.518 27.974 168.53 C18.037 168.603 8.114 168.442 -1.819 168.119 C-2.939 168.089 -4.059 168.058 -5.212 168.026 C-25.142 167.315 -25.142 167.315 -31.819 161.494 C-34.567 157.997 -34.235 153.752 -33.819 149.494 C-32.319 143.994 -32.319 143.994 -30.819 142.494 C-30.787 138.931 -30.887 135.377 -30.979 131.815 C-30.819 128.494 -30.819 128.494 -28.819 125.494 C-28.159 125.494 -27.499 125.494 -26.819 125.494 C-26.824 124.622 -26.829 123.749 -26.835 122.849 C-26.982 94.313 -26.272 65.981 -24.203 37.513 C-24.031 35.135 -23.862 32.758 -23.698 30.38 C-23.463 27.02 -23.21 23.661 -22.951 20.303 C-22.883 19.287 -22.814 18.27 -22.743 17.223 C-21.987 7.901 -21.987 7.901 -18.819 4.494 C-12.745 0.361 -7.184 -0.075 0 0 Z M-20.819 69.494 C-22.125 85.521 -23.152 101.411 -22.819 117.494 C-20.736 116.457 -20.736 116.457 -18.819 114.494 C-18.006 111.223 -18.006 111.223 -17.819 107.494 C-17.714 106.239 -17.61 104.983 -17.502 103.69 C-17.22 99.294 -17.006 94.895 -16.819 90.494 C-16.783 89.71 -16.748 88.925 -16.711 88.116 C-16.618 85.805 -16.557 83.495 -16.506 81.182 C-16.476 80.471 -16.447 79.76 -16.416 79.028 C-16.376 75.534 -16.443 73.906 -18.845 71.275 C-19.497 70.687 -20.148 70.1 -20.819 69.494 Z M47.478 155.678 C43.641 161.053 43.293 166.007 44.181 172.494 C45.447 175.534 47.1 177.956 49.181 180.494 C49.8 181.258 50.419 182.021 51.056 182.807 C55.339 186.208 59.288 187.819 64.744 187.369 C68.641 186.776 71.768 185.507 75.181 183.494 C75.181 182.834 75.181 182.174 75.181 181.494 C75.779 181.288 76.378 181.082 76.994 180.869 C80.604 178.6 81.65 175.48 82.728 171.452 C83.872 164.989 82 160.288 79.181 154.494 C78.521 154.494 77.861 154.494 77.181 154.494 C77.181 153.834 77.181 153.174 77.181 152.494 C76.521 152.494 75.861 152.494 75.181 152.494 C75.181 151.834 75.181 151.174 75.181 150.494 C64.557 144.951 55.19 146.412 47.478 155.678 Z M349.181 147.494 C353.181 148.494 353.181 148.494 353.181 148.494 Z M339.181 150.494 C339.181 151.154 339.181 151.814 339.181 152.494 C338.521 152.494 337.861 152.494 337.181 152.494 C337.181 153.154 337.181 153.814 337.181 154.494 C336.521 154.494 335.861 154.494 335.181 154.494 C331.534 160.649 330.228 165.341 331.181 172.494 C333.254 179.1 338.838 183.619 344.744 186.932 C350.63 188.29 355.032 187.697 360.256 184.827 C365.401 181.268 368.896 176.664 370.181 170.494 C370.889 164.243 368.948 159.942 366.181 154.494 C365.521 154.494 364.861 154.494 364.181 154.494 C364.181 153.834 364.181 153.174 364.181 152.494 C363.521 152.494 362.861 152.494 362.181 152.494 C362.181 151.834 362.181 151.174 362.181 150.494 C358.671 148.808 358.671 148.808 354.869 148.869 C354.312 149.076 353.755 149.282 353.181 149.494 C353.181 151.144 353.181 152.794 353.181 154.494 C351.861 154.824 350.541 155.154 349.181 155.494 C347.721 152.847 347.181 151.6 347.181 148.494 C343.414 148.494 342.269 148.73 339.181 150.494 Z M106.181 152.494 C106.181 155.464 106.181 158.434 106.181 161.494 C110.141 161.494 114.101 161.494 118.181 161.494 C118.181 158.524 118.181 155.554 118.181 152.494 C114.221 152.494 110.261 152.494 106.181 152.494 Z M120.181 152.494 C120.181 155.464 120.181 158.434 120.181 161.494 C158.461 161.494 196.741 161.494 236.181 161.494 C236.181 158.524 236.181 155.554 236.181 152.494 C197.901 152.494 159.621 152.494 120.181 152.494 Z M239.181 152.494 C239.511 155.464 239.841 158.434 240.181 161.494 C261.961 161.494 283.741 161.494 306.181 161.494 C306.511 158.524 306.841 155.554 307.181 152.494 C284.741 152.494 262.301 152.494 239.181 152.494 Z " fill="#282925" transform="translate(45.81867980957031,142.50552368164063)"/>
<path d="M0 0 C0.954 -0.002 1.909 -0.005 2.892 -0.007 C6.062 -0.013 9.232 -0.004 12.403 0.004 C14.687 0.003 16.971 0.001 19.255 -0.001 C25.438 -0.006 31.622 0.001 37.806 0.012 C44.284 0.02 50.763 0.019 57.241 0.018 C68.117 0.019 78.993 0.028 89.869 0.041 C101.047 0.056 112.225 0.063 123.403 0.062 C124.092 0.062 124.781 0.062 125.49 0.062 C126.522 0.062 126.522 0.062 127.574 0.062 C140.966 0.061 154.358 0.068 167.75 0.077 C171.605 0.079 175.46 0.08 179.315 0.08 C185.374 0.081 191.433 0.087 197.492 0.098 C199.714 0.1 201.936 0.102 204.158 0.101 C207.194 0.101 210.23 0.106 213.265 0.114 C214.142 0.112 215.018 0.11 215.921 0.109 C216.743 0.112 217.564 0.115 218.41 0.119 C219.11 0.119 219.809 0.12 220.53 0.121 C224.037 0.3 227.521 0.812 231.006 1.247 C231.006 42.827 231.006 84.407 231.006 127.247 C177.272 127.247 177.272 127.247 156.078 126.875 C152.189 126.807 148.299 126.749 144.41 126.691 C141.875 126.649 139.341 126.606 136.806 126.564 C135.673 126.547 134.54 126.53 133.372 126.513 C132.301 126.493 131.229 126.473 130.124 126.453 C129.204 126.437 128.283 126.421 127.335 126.405 C122.548 126.178 117.778 125.681 113.006 125.247 C112.676 109.737 112.346 94.227 112.006 78.247 C74.386 78.247 36.766 78.247 -1.994 78.247 C-1.994 79.897 -1.994 81.547 -1.994 83.247 C35.626 83.247 73.246 83.247 112.006 83.247 C112.006 97.107 112.006 110.967 112.006 125.247 C106.097 125.464 106.097 125.464 100.068 125.685 C98.845 125.748 97.622 125.812 96.361 125.878 C89.167 126.005 85.266 124.927 79.991 119.946 C76.767 117.187 73.043 116.301 69.006 115.247 C67.521 114.752 67.521 114.752 66.006 114.247 C55.604 113.504 42.967 113.119 34.62 120.3 C29.769 123.559 23.925 122.756 18.31 122.673 C17.085 122.67 15.86 122.666 14.598 122.663 C12.014 122.653 9.431 122.633 6.847 122.604 C2.888 122.56 -1.07 122.542 -5.029 122.53 C-7.541 122.517 -10.053 122.502 -12.565 122.486 C-13.75 122.478 -14.936 122.471 -16.157 122.463 C-17.258 122.45 -18.36 122.437 -19.495 122.424 C-20.947 122.409 -20.947 122.409 -22.428 122.394 C-24.76 122.261 -26.761 121.907 -28.994 121.247 C-27.81 118.448 -26.649 116.898 -24.47 114.696 C-21.112 110.697 -21.173 106.747 -21.069 101.693 C-21.031 100.791 -20.994 99.889 -20.955 98.961 C-20.842 96.098 -20.761 93.236 -20.682 90.372 C-20.61 88.424 -20.537 86.476 -20.461 84.528 C-20.281 79.769 -20.13 75.009 -19.994 70.247 C-20.654 70.247 -21.314 70.247 -21.994 70.247 C-21.989 70.89 -21.984 71.534 -21.978 72.196 C-21.826 93.794 -21.826 93.794 -22.244 103.435 C-22.291 104.645 -22.337 105.856 -22.385 107.103 C-23.098 110.783 -24.451 112.546 -26.994 115.247 C-27.654 114.917 -28.314 114.587 -28.994 114.247 C-28.52 113.897 -28.046 113.546 -27.557 113.185 C-21.762 105.999 -23.895 87.067 -23.807 77.872 C-23.794 77.153 -23.781 76.434 -23.767 75.693 C-23.761 71.979 -23.878 70.422 -25.994 67.247 C-26.654 76.157 -27.314 85.067 -27.994 94.247 C-28.324 94.247 -28.654 94.247 -28.994 94.247 C-29.024 90.768 -29.041 87.289 -29.057 83.81 C-29.065 82.836 -29.074 81.862 -29.082 80.859 C-29.102 74.899 -28.77 69.157 -27.994 63.247 C-28.654 62.917 -29.314 62.587 -29.994 62.247 C-29.704 60.586 -29.704 60.586 -29.408 58.892 C-27.441 47.037 -26.378 35.25 -25.729 23.25 C-24.821 7.57 -24.821 7.57 -21.709 3.612 C-16.179 -0.791 -6.737 -0.04 0 0 Z " fill="#F0F0F0" transform="translate(51.994293212890625,145.7527618408203)"/>
<path d="M0 0 C34.831 0 34.831 0 51 8 C51.752 8.345 52.503 8.691 53.277 9.047 C63.582 14.19 72.097 23.134 80.539 30.824 C83.13 33.115 85.799 35.277 88.5 37.438 C93.205 41.24 97.441 45.346 101.676 49.66 C109.017 57.05 117.497 64.365 126.613 69.461 C129.412 71.265 131 73.222 133 75.875 C135.819 79.526 138.638 82.848 142 86 C141.437 85.364 141.437 85.364 140.863 84.715 C137.303 80.635 134.087 76.449 131 72 C142.592 73.531 153.346 76.471 164.125 80.938 C164.918 81.261 165.711 81.585 166.528 81.918 C171.412 84.015 175.083 86.402 179 90 C179.66 89.67 180.32 89.34 181 89 C188.367 95.786 189.686 104.007 190.125 113.781 C190.125 115.855 190.069 117.928 190 120 C189.67 120 189.34 120 189 120 C188.67 117.69 188.34 115.38 188 113 C187.01 117.29 186.02 121.58 185 126 C175.782 126.107 166.586 126.03 157.375 125.625 C156.133 125.579 156.133 125.579 154.866 125.531 C147.97 125.195 142.076 124.146 136.375 120 C128.096 114.022 120.018 113.85 110.125 113.938 C109.15 113.942 108.176 113.947 107.172 113.951 C104.781 113.963 102.391 113.981 100 114 C100.99 104.1 100.99 104.1 102 94 C101.424 99.04 101.424 99.04 100.864 104.081 C99.949 111.728 99.949 111.728 98 115 C95.391 116.59 95.391 116.59 92.25 117.938 C88.322 119.63 86.295 120.61 83.68 124.069 C80.572 127.221 78.057 127.491 73.698 127.697 C71.124 127.703 68.55 127.675 65.977 127.621 C64.589 127.612 63.201 127.606 61.813 127.603 C58.159 127.585 54.506 127.531 50.853 127.47 C47.914 127.427 44.976 127.409 42.037 127.393 C27.985 127.314 14.042 126.878 0 126 C0 84.42 0 42.84 0 0 Z " fill="#F4F4F3" transform="translate(284,147)"/>
<path d="M0 0 C1.09 -0.001 2.179 -0.003 3.302 -0.004 C5.095 0.001 5.095 0.001 6.924 0.007 C8.812 0.007 8.812 0.007 10.738 0.006 C14.191 0.006 17.643 0.012 21.095 0.019 C24.702 0.025 28.31 0.026 31.917 0.027 C38.749 0.03 45.581 0.038 52.412 0.048 C60.19 0.059 67.967 0.065 75.745 0.07 C91.744 0.08 107.743 0.098 123.742 0.12 C123.742 3.42 123.742 6.72 123.742 10.12 C122.283 10.131 120.824 10.141 119.32 10.151 C105.591 10.249 91.862 10.352 78.133 10.46 C71.074 10.515 64.015 10.568 56.956 10.618 C50.148 10.665 43.34 10.718 36.532 10.773 C33.93 10.794 31.329 10.812 28.727 10.829 C25.092 10.853 21.457 10.883 17.823 10.915 C16.198 10.924 16.198 10.924 14.54 10.932 C13.057 10.947 13.057 10.947 11.544 10.962 C10.684 10.968 9.824 10.975 8.938 10.982 C6.564 11.037 6.564 11.037 3.742 12.12 C1.321 19.119 1.029 26.466 0.492 33.808 C0.389 35.018 0.286 36.227 0.179 37.474 C0.092 38.64 0.004 39.806 -0.086 41.007 C-0.168 42.061 -0.249 43.115 -0.333 44.201 C-0.23 48.207 0.5 50.919 3.418 53.742 C4.076 54.199 4.733 54.657 5.41 55.128 C6.503 55.896 6.503 55.896 7.619 56.679 C8.381 57.196 9.144 57.713 9.929 58.245 C10.673 58.77 11.416 59.295 12.181 59.835 C21.293 66.144 27.674 67.567 38.722 67.597 C40.668 67.62 42.614 67.644 44.56 67.667 C46.613 67.689 48.666 67.704 50.72 67.717 C54.939 67.743 59.158 67.789 63.377 67.839 C64.783 67.855 66.19 67.872 67.596 67.888 C68.289 67.896 68.982 67.904 69.697 67.913 C71.789 67.937 73.882 67.959 75.975 67.98 C87.193 68.097 98.404 68.34 109.617 68.683 C110.369 68.705 111.12 68.728 111.895 68.751 C115.844 68.868 119.793 68.991 123.742 69.12 C124.541 72.407 124.838 73.83 123.742 77.12 C86.122 77.12 48.502 77.12 9.742 77.12 C9.742 78.77 9.742 80.42 9.742 82.12 C47.362 82.12 84.982 82.12 123.742 82.12 C123.742 95.98 123.742 109.84 123.742 124.12 C117.833 124.337 117.833 124.337 111.804 124.558 C110.581 124.621 109.358 124.685 108.098 124.751 C100.903 124.878 97.002 123.8 91.727 118.819 C88.503 116.06 84.779 115.174 80.742 114.12 C79.257 113.625 79.257 113.625 77.742 113.12 C67.341 112.377 54.703 111.992 46.356 119.173 C41.506 122.432 35.661 121.629 30.047 121.546 C28.822 121.543 27.597 121.539 26.334 121.536 C23.751 121.526 21.167 121.506 18.583 121.477 C14.624 121.433 10.666 121.415 6.707 121.403 C4.195 121.39 1.683 121.375 -0.828 121.359 C-2.014 121.351 -3.199 121.344 -4.421 121.336 C-5.522 121.323 -6.624 121.31 -7.759 121.297 C-9.21 121.282 -9.21 121.282 -10.691 121.267 C-13.024 121.134 -15.024 120.78 -17.258 120.12 C-16.074 117.321 -14.912 115.771 -12.734 113.569 C-9.376 109.57 -9.437 105.62 -9.332 100.566 C-9.295 99.664 -9.258 98.762 -9.219 97.834 C-9.106 94.971 -9.025 92.109 -8.946 89.245 C-8.874 87.297 -8.801 85.349 -8.725 83.402 C-8.544 78.642 -8.393 73.882 -8.258 69.12 C-8.918 69.12 -9.578 69.12 -10.258 69.12 C-10.253 69.763 -10.248 70.407 -10.242 71.069 C-10.09 92.667 -10.09 92.667 -10.508 102.308 C-10.555 103.518 -10.601 104.729 -10.649 105.976 C-11.362 109.656 -12.715 111.42 -15.258 114.12 C-15.918 113.79 -16.578 113.46 -17.258 113.12 C-16.784 112.77 -16.309 112.419 -15.821 112.058 C-10.025 104.872 -12.159 85.94 -12.071 76.745 C-12.058 76.026 -12.045 75.307 -12.031 74.566 C-12.025 70.852 -12.141 69.295 -14.258 66.12 C-14.918 75.03 -15.578 83.94 -16.258 93.12 C-16.588 93.12 -16.918 93.12 -17.258 93.12 C-17.288 89.641 -17.305 86.162 -17.321 82.683 C-17.329 81.709 -17.337 80.735 -17.346 79.732 C-17.366 73.772 -17.034 68.03 -16.258 62.12 C-16.918 61.79 -17.578 61.46 -18.258 61.12 C-17.968 59.459 -17.968 59.459 -17.672 57.765 C-15.704 45.91 -14.642 34.123 -13.993 22.123 C-13.093 6.593 -13.093 6.593 -9.821 2.183 C-6.627 0.011 -3.729 -0.004 0 0 Z " fill="#F3F3F3" transform="translate(40.25810241699219,146.87974548339844)"/>
<path d="M0 0 C1.132 -0.001 2.264 -0.001 3.431 -0.002 C7.17 0.001 10.908 0.04 14.647 0.079 C17.241 0.089 19.834 0.096 22.428 0.101 C28.555 0.118 34.682 0.157 40.808 0.208 C48.47 0.269 56.132 0.296 63.794 0.323 C77.457 0.372 91.12 0.472 104.784 0.568 C104.784 18.718 104.784 36.868 104.784 55.568 C87.342 55.611 69.902 55.631 52.461 55.577 C48.998 55.568 45.535 55.566 42.073 55.566 C37.096 55.563 32.121 55.529 27.145 55.469 C25.338 55.452 23.53 55.444 21.723 55.448 C11.701 55.459 3.89 55.138 -4.216 48.568 C-5.478 47.666 -6.739 46.765 -8.001 45.865 C-9.098 45.021 -10.191 44.172 -11.279 43.318 C-11.845 42.885 -12.412 42.451 -12.995 42.005 C-17.084 38.832 -17.084 38.832 -18.216 36.568 C-18.842 29.494 -18.089 22.254 -17.529 15.193 C-17.475 14.325 -17.422 13.457 -17.367 12.562 C-17.293 11.731 -17.218 10.9 -17.142 10.044 C-17.084 9.302 -17.027 8.561 -16.967 7.797 C-14.141 -0.59 -7.487 -0.126 0 0 Z " fill="#F4F4F4" transform="translate(59.216064453125,158.432373046875)"/>
<path d="M0 0 C25.794 -0.16 25.794 -0.16 36.773 -0.195 C44.271 -0.219 51.768 -0.248 59.265 -0.302 C65.308 -0.345 71.35 -0.369 77.394 -0.38 C79.701 -0.387 82.009 -0.401 84.317 -0.423 C87.544 -0.452 90.771 -0.456 93.999 -0.454 C94.957 -0.468 95.915 -0.483 96.902 -0.498 C103.318 -0.458 103.318 -0.458 106.595 1.741 C108.178 4.286 108.497 5.621 108.486 8.597 C108.495 9.954 108.495 9.954 108.504 11.338 C108.49 12.308 108.476 13.278 108.461 14.277 C108.46 15.281 108.459 16.284 108.458 17.318 C108.452 19.439 108.436 21.56 108.412 23.68 C108.375 26.922 108.371 30.163 108.371 33.404 C108.361 35.466 108.35 37.528 108.336 39.59 C108.334 40.558 108.331 41.526 108.329 42.523 C108.206 51.266 108.206 51.266 106 55 C102.504 57.33 101.153 57.246 97.025 57.23 C95.785 57.229 94.544 57.228 93.266 57.227 C91.896 57.214 90.526 57.201 89.156 57.188 C87.725 57.18 86.293 57.173 84.862 57.166 C68.533 57.061 52.211 56.575 35.89 56.073 C31.094 55.927 26.299 55.788 21.503 55.647 C14.335 55.437 7.168 55.218 0 55 C0 36.85 0 18.7 0 0 Z " fill="#F4F4F4" transform="translate(165,159)"/>
<path d="M0 0 C19.288 0.363 34.083 6.879 48 20 C49.621 21.463 51.246 22.921 52.875 24.375 C57.166 28.234 61.425 32.125 65.659 36.045 C69.119 39.237 72.673 42.271 76.379 45.172 C78 47 78 47 79.164 50.141 C81.311 55.518 85.697 59.079 89.812 63 C103.108 75.853 103.108 75.853 105 79 C104.875 81.938 104.875 81.938 104 84 C96.05 84.224 88.729 83.954 81 82 C81 83.65 81 85.3 81 87 C80.67 87 80.34 87 80 87 C80 85.35 80 83.7 80 82 C79.404 81.93 78.808 81.86 78.194 81.788 C71.922 81.045 65.657 80.258 59.395 79.44 C57.244 79.161 55.093 78.889 52.941 78.626 C39.325 76.938 26.366 73.941 13.25 70 C12.524 69.785 11.798 69.569 11.051 69.348 C8.972 68.725 6.899 68.085 4.828 67.438 C3.631 67.065 2.434 66.692 1.2 66.309 C-3.787 64.269 -6.397 62.276 -8.707 57.387 C-10.921 49.775 -11.113 41.679 -11.688 33.812 C-11.817 32.17 -11.948 30.527 -12.08 28.885 C-13.47 11.162 -13.47 11.162 -12.051 7.652 C-8.776 5.014 -5.203 5.454 -1.188 5.562 C0.09 5.583 0.09 5.583 1.393 5.605 C19.502 6.127 33.125 11.325 46 24 C47.302 25.158 48.614 26.305 49.938 27.438 C52.315 29.496 54.648 31.592 56.949 33.734 C57.473 34.221 57.997 34.708 58.537 35.209 C59.566 36.167 60.591 37.128 61.613 38.094 C64.892 41.144 68.232 43.613 72 46 C69.321 42.567 66.629 39.584 63.312 36.758 C58.389 32.502 53.694 28.023 49 23.518 C34.679 9.938 19.477 4.021 0 1 C0 0.67 0 0.34 0 0 Z " fill="#1E1F1B" transform="translate(306,153)"/>
<path d="M0 0 C4.751 3.349 9.078 6.952 13.312 10.938 C16.926 14.296 20.434 17.008 24.688 19.5 C29.698 22.516 32.812 26.015 36.273 30.688 C38.31 33.415 40.523 35.677 43 38 C42.625 37.576 42.25 37.152 41.863 36.715 C38.303 32.635 35.087 28.449 32 24 C43.592 25.531 54.346 28.471 65.125 32.938 C65.918 33.261 66.711 33.585 67.528 33.918 C72.412 36.015 76.083 38.402 80 42 C80.66 41.67 81.32 41.34 82 41 C89.367 47.786 90.686 56.007 91.125 65.781 C91.125 67.855 91.069 69.928 91 72 C90.67 72 90.34 72 90 72 C89.505 68.535 89.505 68.535 89 65 C88.01 69.29 87.02 73.58 86 78 C76.782 78.107 67.586 78.03 58.375 77.625 C57.133 77.579 57.133 77.579 55.866 77.531 C48.97 77.195 43.076 76.146 37.375 72 C29.098 66.024 21.01 65.851 11.125 65.938 C6.113 65.968 6.113 65.968 1 66 C1.99 57.42 2.98 48.84 4 40 C15.385 40.99 15.385 40.99 27 42 C27.122 36.769 27.122 36.769 24.07 33.363 C23.444 32.708 22.818 32.053 22.172 31.378 C21.159 30.356 21.159 30.356 20.125 29.312 C19.446 28.605 18.766 27.897 18.066 27.168 C15.039 24.031 11.971 20.946 8.812 17.941 C7.926 17.094 7.039 16.248 6.125 15.375 C5.344 14.661 4.563 13.947 3.758 13.211 C1.601 10.499 1.303 8.409 1 5 C0.34 5 -0.32 5 -1 5 C-1.33 3.68 -1.66 2.36 -2 1 C-1.34 0.67 -0.68 0.34 0 0 Z " fill="#F1F1F1" transform="translate(383,195)"/>
<path d="M0 0 C8.865 0.104 18.302 0.809 25.65 6.253 C26.477 8.72 26.477 8.72 26.759 11.687 C26.874 12.798 26.988 13.91 27.106 15.055 C27.251 16.855 27.251 16.855 27.4 18.691 C27.516 19.92 27.631 21.15 27.751 22.416 C28.924 35.67 29.373 48.954 29.65 62.253 C22.675 61.614 16.185 59.933 9.462 58.003 C7.862 57.572 7.862 57.572 6.23 57.132 C-3.87 54.239 -3.87 54.239 -7.35 49.253 C-8.903 44.549 -9.728 40.063 -10.202 35.14 C-10.265 34.485 -10.329 33.831 -10.395 33.157 C-10.527 31.781 -10.657 30.406 -10.783 29.03 C-10.974 26.956 -11.177 24.883 -11.381 22.81 C-12.866 7.379 -12.866 7.379 -12.35 1.253 C-9.978 -1.119 -3.337 0.004 0 0 Z " fill="#F3F3F3" transform="translate(308.35009765625,161.746826171875)"/>
<path d="M0 0 C0.801 0.013 1.602 0.026 2.427 0.039 C11.785 0.191 21.143 0.363 30.5 0.562 C30.17 1.882 29.84 3.202 29.5 4.562 C29.5 3.572 29.5 2.582 29.5 1.562 C6.4 1.562 -16.7 1.562 -40.5 1.562 C-40.5 5.192 -40.5 8.822 -40.5 12.562 C-17.73 12.562 5.04 12.562 28.5 12.562 C28.83 11.572 29.16 10.582 29.5 9.562 C29.5 11.543 29.5 13.522 29.5 15.562 C30.16 15.892 30.82 16.223 31.5 16.562 C31.83 16.892 32.16 17.223 32.5 17.562 C34.828 17.93 37.162 18.265 39.5 18.562 C39.5 18.892 39.5 19.223 39.5 19.562 C21.153 19.586 2.806 19.604 -15.541 19.614 C-24.067 19.619 -32.593 19.626 -41.118 19.638 C-81.926 19.693 -122.702 19.532 -163.5 18.562 C-161.5 16.562 -161.5 16.562 -158.5 14.562 C-158.17 13.902 -157.84 13.243 -157.5 12.562 C-119.22 12.562 -80.94 12.562 -41.5 12.562 C-41.5 8.933 -41.5 5.303 -41.5 1.562 C-79.45 1.562 -117.4 1.562 -156.5 1.562 C-156.5 1.233 -156.5 0.902 -156.5 0.562 C-139.396 0.359 -122.292 0.172 -105.188 0 C-103.921 -0.013 -102.655 -0.025 -101.351 -0.039 C-67.561 -0.374 -33.788 -0.541 0 0 Z " fill="#161614" transform="translate(324.5,292.4375)"/>
<path d="M0 0 C5.007 1.533 8.289 4.529 12.125 7.938 C13.111 8.802 13.111 8.802 14.117 9.683 C19.162 14.149 23.954 18.814 28.633 23.66 C30.91 26.067 30.91 26.067 33.645 27.725 C36 30 36 30 36.384 33.116 C36.274 34.31 36.164 35.504 36.051 36.734 C35.891 38.678 35.891 38.678 35.729 40.66 C35.59 42.023 35.452 43.387 35.312 44.75 C35.191 46.129 35.072 47.508 34.955 48.887 C34.66 52.261 34.341 55.63 34 59 C27.117 59.198 20.653 58.679 13.875 57.5 C13.014 57.357 12.153 57.214 11.266 57.066 C9.176 56.718 7.088 56.36 5 56 C3.62 45.549 2.475 35.099 1.567 24.596 C1.372 22.341 1.171 20.087 0.969 17.832 C0.841 16.375 0.713 14.918 0.586 13.461 C0.417 11.524 0.417 11.524 0.244 9.548 C0.024 6.35 -0.046 3.204 0 0 Z " fill="#F3F3F3" transform="translate(337,170)"/>
<path d="M0 0 C11.592 1.531 22.346 4.471 33.125 8.938 C33.918 9.261 34.711 9.585 35.528 9.918 C40.412 12.015 44.083 14.402 48 18 C48.66 17.67 49.32 17.34 50 17 C54.429 21.079 56.812 24.006 57.195 30.113 C57.172 31.169 57.149 32.225 57.125 33.312 C57.107 34.381 57.089 35.45 57.07 36.551 C57.047 37.359 57.024 38.167 57 39 C56.34 39 55.68 39 55 39 C55 39.66 55 40.32 55 41 C49.158 40.186 43.329 39.321 37.505 38.388 C35.412 38.064 33.312 37.786 31.211 37.52 C26.755 36.769 23.987 36.28 21.156 32.609 C19.625 29.75 19.625 29.75 18.309 26.789 C17.035 24.074 15.722 22.299 13.688 20.125 C11.047 17.268 11.047 17.268 10.562 14.5 C9.744 10.861 7.388 9.216 4.723 6.715 C2.689 4.691 1.311 2.545 0 0 Z " fill="#22221F" transform="translate(415,219)"/>
<path d="M0 0 C0.914 -0.005 1.829 -0.011 2.771 -0.016 C5.848 -0.031 8.925 -0.023 12.002 -0.016 C14.203 -0.022 16.403 -0.029 18.604 -0.037 C24.592 -0.055 30.579 -0.054 36.567 -0.048 C41.56 -0.045 46.552 -0.051 51.545 -0.057 C63.995 -0.072 76.444 -0.068 88.894 -0.056 C99.709 -0.046 110.525 -0.059 121.34 -0.083 C132.442 -0.108 143.543 -0.117 154.645 -0.111 C160.879 -0.107 167.113 -0.11 173.347 -0.127 C179.208 -0.142 185.069 -0.139 190.931 -0.12 C193.085 -0.116 195.239 -0.119 197.394 -0.13 C200.329 -0.143 203.263 -0.131 206.198 -0.114 C207.484 -0.128 207.484 -0.128 208.797 -0.143 C214.548 -0.071 214.548 -0.071 217.691 2.275 C219.458 4.813 219.663 6.185 219.664 9.26 C219.673 10.225 219.683 11.19 219.692 12.183 C219.676 13.737 219.676 13.737 219.658 15.321 C219.66 16.391 219.661 17.461 219.663 18.564 C219.661 20.826 219.65 23.088 219.629 25.35 C219.6 28.809 219.608 32.266 219.621 35.726 C219.615 37.924 219.607 40.123 219.596 42.321 C219.599 43.355 219.602 44.388 219.605 45.453 C219.484 54.66 219.484 54.66 216.162 58.388 C212.536 60.845 208.896 60.631 204.678 60.54 C203.933 60.532 203.188 60.523 202.42 60.515 C200.001 60.484 197.582 60.437 195.162 60.388 C194.37 60.374 193.578 60.36 192.762 60.345 C186.81 60.239 180.859 60.097 174.908 59.95 C173.027 59.905 171.145 59.86 169.264 59.816 C164.373 59.699 159.483 59.58 154.592 59.461 C149.577 59.338 144.562 59.219 139.547 59.099 C129.752 58.864 119.957 58.627 110.162 58.388 C109.832 59.708 109.502 61.028 109.162 62.388 C109.162 61.068 109.162 59.748 109.162 58.388 C108.396 58.393 107.631 58.398 106.841 58.404 C97.754 58.455 88.667 58.444 79.579 58.409 C74.908 58.391 70.237 58.386 65.566 58.386 C59.358 58.385 53.15 58.357 46.943 58.306 C43.467 58.278 39.993 58.26 36.517 58.268 C32.555 58.276 28.593 58.235 24.631 58.192 C23.451 58.201 22.271 58.211 21.055 58.22 C9.696 58.022 0.817 53.276 -7.963 46.325 C-8.786 45.713 -8.786 45.713 -9.627 45.089 C-13.011 42.463 -14.607 40.461 -15.838 36.388 C-15.913 33.437 -15.913 33.437 -15.666 30.204 C-15.578 29.029 -15.491 27.854 -15.4 26.644 C-15.297 25.425 -15.194 24.206 -15.088 22.95 C-15 21.735 -14.912 20.52 -14.822 19.269 C-13.757 5.769 -13.757 5.769 -10.507 1.737 C-7.537 -0.664 -3.662 -0.026 0 0 Z M-11.838 6.388 C-12.679 8.582 -12.679 8.582 -12.764 10.864 C-12.838 11.695 -12.913 12.526 -12.99 13.382 C-13.043 14.25 -13.096 15.118 -13.15 16.013 C-13.218 16.905 -13.286 17.797 -13.356 18.716 C-13.54 21.272 -13.69 23.829 -13.838 26.388 C-13.933 27.57 -14.029 28.752 -14.127 29.97 C-14.547 35.383 -14.547 35.383 -11.713 39.853 C-8.684 42.523 -5.606 45.06 -2.4 47.513 C-1.853 47.942 -1.306 48.371 -0.742 48.813 C5.46 53.584 10.348 55.831 18.186 55.899 C18.98 55.917 19.775 55.935 20.594 55.954 C23.242 56.009 25.889 56.043 28.537 56.075 C30.404 56.108 32.271 56.142 34.138 56.176 C59.142 56.596 84.157 56.449 109.162 56.388 C109.162 38.238 109.162 20.088 109.162 1.388 C87.663 1.237 87.663 1.237 66.164 1.136 C58.476 1.109 50.788 1.073 43.1 1.01 C36.363 0.955 29.627 0.926 22.89 0.913 C20.318 0.904 17.746 0.886 15.174 0.859 C11.575 0.823 7.977 0.818 4.378 0.82 C2.778 0.793 2.778 0.793 1.146 0.766 C-4.895 0.808 -8.107 1.125 -11.838 6.388 Z M110.162 1.388 C110.162 19.538 110.162 37.688 110.162 56.388 C122 56.748 122 56.748 133.838 57.099 C138.697 57.241 143.555 57.384 148.414 57.533 C158.555 57.844 168.696 58.121 178.839 58.338 C180.398 58.371 181.956 58.406 183.515 58.442 C188.056 58.545 192.597 58.626 197.14 58.674 C198.537 58.691 199.934 58.715 201.331 58.747 C203.251 58.788 205.17 58.802 207.09 58.813 C208.171 58.828 209.252 58.843 210.366 58.858 C213.87 58.269 215.005 57.157 217.162 54.388 C218.099 51.579 218.303 49.799 218.339 46.888 C218.352 45.98 218.365 45.072 218.378 44.137 C218.386 43.159 218.393 42.181 218.401 41.173 C218.413 39.662 218.413 39.662 218.425 38.12 C218.439 35.99 218.45 33.859 218.457 31.728 C218.475 28.466 218.519 25.206 218.563 21.944 C218.573 19.875 218.581 17.805 218.588 15.735 C218.614 14.271 218.614 14.271 218.641 12.777 C218.638 11.866 218.635 10.955 218.632 10.017 C218.641 8.818 218.641 8.818 218.65 7.595 C217.919 4.287 216.994 3.285 214.162 1.388 C210.828 0.811 207.537 0.883 204.161 0.934 C203.146 0.933 202.131 0.932 201.086 0.932 C197.731 0.935 194.376 0.966 191.022 0.997 C188.696 1.005 186.37 1.01 184.044 1.014 C177.921 1.029 171.799 1.069 165.677 1.113 C158.332 1.161 150.986 1.18 143.641 1.203 C132.481 1.242 121.322 1.318 110.162 1.388 Z " fill="#1A1A1A" transform="translate(54.83775329589844,157.61231994628906)"/>
<path d="M0 0 C1.277 0.021 1.277 0.021 2.58 0.042 C20.69 0.564 34.313 5.763 47.188 18.438 C48.49 19.595 49.801 20.742 51.125 21.875 C54.611 24.906 58.03 28.006 61.438 31.125 C62.199 31.821 62.199 31.821 62.976 32.531 C65.78 35.105 68.519 37.724 71.188 40.438 C69.551 41.25 69.551 41.25 67.188 41.438 C65.039 39.838 63.264 38.305 61.375 36.438 C60.839 35.928 60.304 35.418 59.752 34.893 C56.99 32.251 54.295 29.547 51.625 26.812 C45.809 20.897 39.333 15.643 32.188 11.438 C32.308 12.498 32.308 12.498 32.431 13.579 C33.968 27.206 35.389 40.827 36.438 54.5 C36.53 55.652 36.622 56.804 36.716 57.991 C36.794 59.058 36.873 60.124 36.953 61.223 C37.058 62.628 37.058 62.628 37.165 64.063 C37.188 66.438 37.188 66.438 36.188 69.438 C29.266 68.578 22.775 66.729 16.117 64.737 C14.064 64.126 12.007 63.532 9.949 62.939 C8.63 62.548 7.311 62.155 5.992 61.762 C4.213 61.237 4.213 61.237 2.398 60.702 C-2.622 58.725 -5.209 56.715 -7.52 51.824 C-9.734 44.212 -9.926 36.116 -10.5 28.25 C-10.63 26.607 -10.761 24.965 -10.893 23.322 C-12.282 5.599 -12.282 5.599 -10.863 2.09 C-7.589 -0.549 -4.015 -0.108 0 0 Z M-8.812 4.438 C-9.458 12.239 -8.443 20.177 -7.696 27.942 C-7.5 29.999 -7.321 32.057 -7.143 34.115 C-6.575 46.021 -6.575 46.021 -1.108 56.042 C1.709 57.754 4.391 58.581 7.562 59.48 C8.795 59.832 10.027 60.183 11.297 60.545 C11.936 60.722 12.574 60.899 13.232 61.082 C15.184 61.624 17.131 62.181 19.078 62.74 C26.028 64.771 26.028 64.771 33.188 65.438 C32.885 50.878 32.303 36.375 30.938 21.875 C30.792 20.075 30.792 20.075 30.643 18.239 C30.529 17.128 30.415 16.016 30.297 14.871 C30.204 13.892 30.111 12.913 30.015 11.904 C29.377 9.223 29.377 9.223 26.785 7.657 C20.267 4.596 -2.896 -1.479 -8.812 4.438 Z " fill="#252524" transform="translate(304.8125,158.5625)"/>
<path d="M0 0 C0.33 0 0.66 0 1 0 C1 16.5 1 33 1 50 C0.67 50 0.34 50 0 50 C0 36.14 0 22.28 0 8 C-37.62 8 -75.24 8 -114 8 C-114 6.35 -114 4.7 -114 3 C-76.38 3 -38.76 3 0 3 C0 2.01 0 1.02 0 0 Z " fill="#181815" transform="translate(164,221)"/>
<path d="M0 0 C34.831 0 34.831 0 51 8 C51.752 8.345 52.503 8.691 53.277 9.047 C63.576 14.187 72.08 23.122 80.52 30.805 C84.068 33.945 87.753 36.905 91.457 39.859 C94.145 42.122 96.651 44.384 99 47 C98.812 49.812 98.812 49.812 98 52 C94.379 48.97 90.871 45.932 87.562 42.562 C84.619 39.573 81.545 36.814 78.359 34.086 C76.516 32.456 74.729 30.802 72.953 29.102 C63.923 20.485 55.02 13.919 43 10 C42.09 9.7 41.18 9.399 40.242 9.09 C27.04 5.533 15.252 7 1 7 C1 46.27 1 85.54 1 126 C0.67 126 0.34 126 0 126 C0 84.42 0 42.84 0 0 Z " fill="#E2E2E2" transform="translate(284,147)"/>
<path d="M0 0 C16.146 4.644 30.068 20.096 42.086 31.301 C44.937 33.942 47.844 36.496 50.789 39.031 C52.629 40.67 54.424 42.336 56.211 44.031 C68.609 55.785 79.047 63.602 95.988 67.338 C109.9 70.427 124.209 73.978 134 85 C132.02 85.99 132.02 85.99 130 87 C129.031 86.154 128.061 85.309 127.062 84.438 C115.876 76.116 96.948 69 83 69 C86.63 72.96 90.26 76.92 94 81 C93.34 81.99 92.68 82.98 92 84 C91.553 83.42 91.105 82.84 90.645 82.242 C87.845 78.625 85.053 75.025 82.062 71.562 C80 69 80 69 80 67 C79.295 66.756 78.59 66.513 77.863 66.262 C66.333 61.181 56.766 50.274 47.786 41.698 C41.344 35.574 34.641 29.842 27.727 24.262 C25.028 22.023 22.45 19.692 19.875 17.312 C13.205 11.255 6.124 6.841 -2 3 C-1.34 2.01 -0.68 1.02 0 0 Z " fill="#474746" transform="translate(333,151)"/>
<path d="M0 0 C1.703 0.135 1.703 0.135 3.441 0.273 C6.438 0.625 6.438 0.625 9.438 1.625 C9.438 2.615 9.438 3.605 9.438 4.625 C10.428 4.955 11.418 5.285 12.438 5.625 C12.159 6.522 12.159 6.522 11.875 7.438 C11.217 9.789 11.217 9.789 12.438 12.625 C13.428 12.295 14.418 11.965 15.438 11.625 C15.438 9.645 15.438 7.665 15.438 5.625 C17.375 6.25 17.375 6.25 19.438 7.625 C20.188 10.75 20.188 10.75 20.438 13.625 C18.788 13.625 17.137 13.625 15.438 13.625 C15.778 14.739 15.778 14.739 16.125 15.875 C16.438 18.625 16.438 18.625 15 20.938 C14.484 21.494 13.969 22.051 13.438 22.625 C13.438 21.965 13.438 21.305 13.438 20.625 C12.778 20.625 12.118 20.625 11.438 20.625 C11.438 19.965 11.438 19.305 11.438 18.625 C10.778 18.625 10.118 18.625 9.438 18.625 C9.438 17.965 9.438 17.305 9.438 16.625 C6.798 16.295 4.158 15.965 1.438 15.625 C1.479 16.409 1.52 17.192 1.562 18 C1.438 20.625 1.438 20.625 -0.562 22.625 C-2.562 22.5 -2.562 22.5 -4.562 21.625 C-5.875 19.75 -5.875 19.75 -6.562 17.625 C-6.233 16.635 -5.902 15.645 -5.562 14.625 C-6.8 15.017 -8.038 15.409 -9.312 15.812 C-13.215 16.816 -13.215 16.816 -16.062 15.25 C-16.558 14.714 -17.053 14.178 -17.562 13.625 C-17.233 12.965 -16.902 12.305 -16.562 11.625 C-16.233 10.635 -15.902 9.645 -15.562 8.625 C-17.873 8.295 -20.183 7.965 -22.562 7.625 C-20.314 5.111 -18.216 3.824 -15.125 2.5 C-14.363 2.167 -13.601 1.835 -12.816 1.492 C-8.266 -0.258 -4.903 -0.413 0 0 Z M-3.562 13.625 C0.438 14.625 0.438 14.625 0.438 14.625 Z M-20.562 7.625 C-18.562 8.625 -18.562 8.625 -18.562 8.625 Z " fill="#232321" transform="translate(398.5625,276.375)"/>
<path d="M0 0 C1.493 -0.005 1.493 -0.005 3.015 -0.01 C6.335 -0.017 9.654 0.005 12.974 0.027 C15.359 0.028 17.745 0.027 20.13 0.025 C25.926 0.024 31.721 0.041 37.516 0.067 C44.263 0.096 51.01 0.101 57.756 0.106 C69.787 0.115 81.817 0.141 93.848 0.179 C105.531 0.216 117.214 0.244 128.897 0.261 C129.978 0.263 129.978 0.263 131.081 0.264 C134.697 0.27 138.313 0.275 141.929 0.28 C171.903 0.321 201.877 0.392 231.851 0.481 C231.851 0.811 231.851 1.141 231.851 1.481 C230.628 1.483 229.405 1.486 228.145 1.488 C199.128 1.546 170.112 1.618 141.096 1.71 C137.526 1.721 133.956 1.732 130.386 1.743 C129.32 1.747 129.32 1.747 128.232 1.75 C116.718 1.786 105.204 1.81 93.69 1.831 C81.879 1.853 70.068 1.886 58.257 1.93 C51.621 1.954 44.986 1.972 38.35 1.979 C32.109 1.985 25.868 2.005 19.627 2.035 C17.332 2.044 15.037 2.048 12.743 2.046 C9.617 2.044 6.493 2.061 3.367 2.082 C2.453 2.077 1.538 2.073 0.596 2.068 C-5.353 2.128 -5.353 2.128 -10.149 5.481 C-11.016 5.873 -11.882 6.265 -12.774 6.669 C-16.166 9.257 -16.419 12.469 -17.149 16.481 C-17.524 19.378 -17.741 22.273 -17.931 25.188 C-17.99 25.994 -18.049 26.8 -18.109 27.631 C-18.296 30.184 -18.474 32.739 -18.649 35.294 C-20.1 56.257 -20.1 56.257 -22.149 65.481 C-22.479 65.481 -22.809 65.481 -23.149 65.481 C-23.479 69.441 -23.809 73.401 -24.149 77.481 C-24.479 77.481 -24.809 77.481 -25.149 77.481 C-25.475 64.373 -24.608 51.396 -23.605 38.332 C-23.335 34.763 -23.084 31.194 -22.835 27.624 C-22.664 25.343 -22.491 23.062 -22.317 20.782 C-22.245 19.72 -22.173 18.659 -22.099 17.565 C-21.314 7.837 -21.314 7.837 -18.149 4.481 C-12.236 0.526 -6.977 -0.089 0 0 Z " fill="#9A9A9A" transform="translate(45.1492919921875,142.51898193359375)"/>
<path d="M0 0 C30.167 -0.023 60.333 -0.041 90.5 -0.051 C94.063 -0.052 97.627 -0.054 101.19 -0.055 C101.9 -0.055 102.609 -0.055 103.34 -0.056 C114.818 -0.06 126.297 -0.068 137.775 -0.077 C149.558 -0.087 161.341 -0.092 173.123 -0.094 C179.74 -0.095 186.356 -0.098 192.972 -0.106 C199.201 -0.113 205.43 -0.115 211.658 -0.113 C213.943 -0.113 216.227 -0.115 218.512 -0.119 C221.635 -0.124 224.759 -0.123 227.882 -0.12 C229.232 -0.125 229.232 -0.125 230.609 -0.129 C236.148 -0.116 241.505 0.3 247 1 C247 1.33 247 1.66 247 2 C240.944 2.884 235.08 3.14 228.965 3.12 C227.982 3.121 226.999 3.122 225.986 3.123 C222.708 3.124 219.43 3.119 216.152 3.114 C213.797 3.113 211.441 3.113 209.085 3.114 C202.699 3.114 196.313 3.108 189.928 3.101 C183.927 3.096 177.927 3.095 171.927 3.094 C160.046 3.092 148.165 3.085 136.285 3.075 C124.747 3.066 113.21 3.059 101.672 3.055 C100.605 3.055 100.605 3.055 99.515 3.054 C95.944 3.053 92.373 3.052 88.802 3.05 C59.202 3.04 29.601 3.022 0 3 C0 2.01 0 1.02 0 0 Z " fill="#131312" transform="translate(36,144)"/>
<path d="M0 0 C17.084 2.256 37.485 6.851 49.699 19.824 C51.247 22.414 51.275 24.033 51 27 C48.594 25.969 47.146 25.181 45.488 23.117 C41.76 19.945 37.611 19.114 32.938 17.875 C31.519 17.478 31.519 17.478 30.072 17.074 C25.282 15.762 20.627 14.711 15.688 14.125 C9.768 13.212 6.572 9.579 3 5 C1 2 1 2 0 0 Z " fill="#EEEEEE" transform="translate(415,219)"/>
<path d="M0 0 C22.44 0 44.88 0 68 0 C67.67 1.65 67.34 3.3 67 5 C58.446 5.046 49.893 5.082 41.339 5.104 C37.368 5.114 33.396 5.128 29.425 5.151 C25.593 5.173 21.761 5.185 17.929 5.19 C16.466 5.193 15.003 5.201 13.54 5.211 C11.493 5.226 9.446 5.228 7.399 5.227 C6.233 5.231 5.068 5.236 3.866 5.241 C1 5 1 5 -2 3 C-1.34 2.34 -0.68 1.68 0 1 C0 0.67 0 0.34 0 0 Z " fill="#1C1C1A" transform="translate(286,306)"/>
<path d="M0 0 C28.876 -0.093 57.752 -0.164 86.628 -0.207 C89.295 -0.211 91.962 -0.215 94.629 -0.22 C95.623 -0.221 95.623 -0.221 96.638 -0.223 C107.376 -0.24 118.114 -0.272 128.852 -0.309 C139.868 -0.346 150.883 -0.368 161.898 -0.376 C168.087 -0.382 174.275 -0.394 180.464 -0.423 C186.285 -0.45 192.105 -0.458 197.926 -0.452 C200.066 -0.454 202.206 -0.462 204.346 -0.477 C207.261 -0.497 210.176 -0.492 213.091 -0.481 C214.369 -0.498 214.369 -0.498 215.673 -0.516 C219.352 -0.479 221.532 -0.349 224.527 1.884 C226.316 4.454 226.486 5.838 226.454 8.952 C226.454 9.933 226.453 10.914 226.453 11.924 C226.433 12.975 226.412 14.026 226.391 15.109 C226.385 16.191 226.379 17.273 226.373 18.388 C226.351 21.842 226.301 25.296 226.25 28.75 C226.23 31.092 226.212 33.435 226.195 35.777 C226.151 41.519 226.084 47.259 226 53 C225.67 53 225.34 53 225 53 C224.994 52.405 224.988 51.811 224.982 51.198 C224.918 45.017 224.834 38.837 224.738 32.657 C224.704 30.349 224.676 28.042 224.654 25.734 C224.62 22.42 224.568 19.107 224.512 15.793 C224.502 14.241 224.502 14.241 224.492 12.658 C224.473 11.697 224.453 10.737 224.432 9.747 C224.421 8.901 224.41 8.055 224.399 7.183 C223.901 4.456 223.15 3.711 221 2 C218.966 1.544 218.966 1.544 216.691 1.601 C215.812 1.589 214.933 1.576 214.027 1.563 C213.065 1.565 212.103 1.566 211.113 1.568 C210.098 1.557 209.083 1.547 208.037 1.537 C204.677 1.507 201.317 1.497 197.957 1.488 C195.63 1.471 193.302 1.453 190.975 1.434 C184.844 1.386 178.714 1.357 172.584 1.33 C165.23 1.295 157.878 1.238 150.525 1.185 C139.35 1.106 128.175 1.056 117 1 C117 18.16 117 35.32 117 53 C116.67 53 116.34 53 116 53 C116 35.84 116 18.68 116 1 C77.72 1 39.44 1 0 1 C0 0.67 0 0.34 0 0 Z " fill="#141413" transform="translate(48,158)"/>
<path d="M0 0 C0.33 1.32 0.66 2.64 1 4 C1.66 4 2.32 4 3 4 C2.67 21.16 2.34 38.32 2 56 C6.875 51.786 6.875 51.786 7.751 46.76 C7.811 45.56 7.811 45.56 7.871 44.335 C7.889 43.486 7.907 42.637 7.926 41.762 C7.963 40.881 8 40 8.039 39.093 C8.152 36.291 8.233 33.49 8.312 30.688 C8.384 28.783 8.457 26.879 8.533 24.975 C8.714 20.317 8.865 15.659 9 11 C9.66 11 10.32 11 11 11 C11.057 17.959 11.064 24.916 11.017 31.875 C11.006 33.808 11.004 35.742 11.015 37.676 C11.066 51.699 11.066 51.699 6.625 56.812 C5.426 57.886 4.218 58.949 3 60 C2.471 60.726 1.943 61.451 1.398 62.199 C0.937 62.793 0.475 63.388 0 64 C-0.66 64 -1.32 64 -2 64 C-2.247 42.551 -1.863 21.381 0 0 Z " fill="#272727" transform="translate(21,205)"/>
<path d="M0 0 C2.379 0.4 4.752 0.819 7.125 1.25 C7.79 1.36 8.455 1.469 9.141 1.582 C14.793 2.635 19.051 4.726 22.875 9.188 C24.459 13.146 24.248 16.79 24 21 C22.603 20.884 21.208 20.757 19.812 20.625 C19.035 20.555 18.258 20.486 17.457 20.414 C14.573 19.928 12.556 19.465 10 18 C8.577 15.683 7.459 13.588 6.375 11.125 C4.553 7.145 2.816 3.396 0 0 Z " fill="#F1F1F1" transform="translate(439,236)"/>
<path d="M0 0 C0.66 0 1.32 0 2 0 C2.164 1.537 2.164 1.537 2.332 3.105 C2.492 4.466 2.652 5.827 2.812 7.188 C2.883 7.861 2.953 8.535 3.025 9.229 C3.545 13.493 4.17 16.714 7 20 C9.431 21.082 11.522 21.827 14.062 22.5 C15.1 22.799 15.1 22.799 16.158 23.104 C18.434 23.755 20.716 24.378 23 25 C24.687 25.474 26.373 25.949 28.059 26.426 C32.367 27.639 36.681 28.825 41 30 C40.892 29.126 40.892 29.126 40.781 28.234 C40.23 23.368 39.87 18.521 39.75 13.625 C39.724 12.648 39.698 11.671 39.672 10.664 C40.053 7.57 41.077 6.383 43 4 C43.364 8.437 43.715 12.874 44.062 17.312 C44.166 18.575 44.27 19.838 44.377 21.139 C44.47 22.347 44.564 23.556 44.66 24.801 C44.794 26.474 44.794 26.474 44.93 28.181 C45 31 45 31 44 34 C37.078 33.141 30.587 31.291 23.929 29.299 C21.877 28.688 19.82 28.095 17.762 27.502 C16.442 27.11 15.123 26.718 13.805 26.324 C12.619 25.974 11.432 25.625 10.21 25.264 C6.203 23.686 3.024 21.796 0.855 17.992 C-0.937 12.309 -1.615 6.959 -1 1 C-0.67 0.67 -0.34 0.34 0 0 Z " fill="#2C2C2C" transform="translate(297,194)"/>
<path d="M0 0 C0.75 1.75 0.75 1.75 1 4 C-0.851 6.233 -2.404 7.702 -5 9 C-7.464 9.087 -9.896 9.113 -12.359 9.09 C-13.113 9.086 -13.867 9.082 -14.644 9.078 C-23.85 9.015 -33.052 8.79 -42.254 8.562 C-44.135 8.517 -46.017 8.473 -47.898 8.428 C-52.789 8.311 -57.679 8.192 -62.57 8.073 C-67.585 7.951 -72.6 7.831 -77.615 7.711 C-87.41 7.476 -97.205 7.239 -107 7 C-107.33 8.32 -107.66 9.64 -108 11 C-108 9.68 -108 8.36 -108 7 C-119.88 7 -131.76 7 -144 7 C-144 6.67 -144 6.34 -144 6 C-142.95 5.985 -141.9 5.971 -140.819 5.956 C-136.931 5.898 -133.044 5.821 -129.156 5.738 C-127.472 5.704 -125.788 5.676 -124.104 5.654 C-121.686 5.62 -119.269 5.568 -116.852 5.512 C-116.096 5.505 -115.341 5.499 -114.563 5.492 C-112.214 5.46 -112.214 5.46 -109 5 C-108.34 4.01 -107.68 3.02 -107 2 C-107 2.99 -107 3.98 -107 5 C-105.639 4.992 -105.639 4.992 -104.251 4.984 C-87.24 4.9 -70.253 4.938 -53.25 5.5 C-41.498 5.884 -29.758 6.11 -18 6.125 C-17.306 6.127 -16.612 6.13 -15.898 6.133 C-13.953 6.138 -12.008 6.136 -10.062 6.133 C-8.96 6.132 -7.858 6.131 -6.723 6.129 C-3.905 6.119 -3.905 6.119 -1 5 C-0.67 3.35 -0.34 1.7 0 0 Z " fill="#282828" transform="translate(272,209)"/>
<path d="M0 0 C0.681 0.205 1.363 0.41 2.064 0.622 C3.945 1.246 3.945 1.246 6.875 2.562 C7.37 4.048 7.37 4.048 7.875 5.562 C2.061 5.003 -3.364 3.813 -9 2.281 C-16.468 0.564 -23.995 0.305 -31.625 0 C-32.638 -0.043 -33.651 -0.086 -34.695 -0.131 C-37.172 -0.236 -39.648 -0.338 -42.125 -0.438 C-42.125 1.213 -42.125 2.863 -42.125 4.562 C-35.855 4.562 -29.585 4.562 -23.125 4.562 C-23.125 4.893 -23.125 5.222 -23.125 5.562 C-29.395 5.562 -35.665 5.562 -42.125 5.562 C-42.125 9.192 -42.125 12.822 -42.125 16.562 C-42.455 16.562 -42.785 16.562 -43.125 16.562 C-43.125 10.952 -43.125 5.343 -43.125 -0.438 C-45.105 -0.438 -47.085 -0.438 -49.125 -0.438 C-51 -1.938 -51 -1.938 -52.125 -3.438 C-35.29 -6.243 -16.32 -4.971 0 0 Z " fill="#121210" transform="translate(326.125,147.4375)"/>
<path d="M0 0 C3.915 1.799 5.945 3.677 7.508 7.75 C8.532 12.432 8.211 17.239 8 22 C7.34 22 6.68 22 6 22 C6 22.66 6 23.32 6 24 C2.727 23.554 -0.543 23.091 -3.812 22.625 C-4.741 22.499 -5.67 22.372 -6.627 22.242 C-7.52 22.113 -8.412 21.984 -9.332 21.852 C-10.154 21.736 -10.976 21.621 -11.823 21.502 C-14 21 -14 21 -17 19 C-16.67 18.34 -16.34 17.68 -16 17 C-16.66 16.67 -17.32 16.34 -18 16 C-17.01 16 -16.02 16 -15 16 C-14.67 16.66 -14.34 17.32 -14 18 C-11.835 18.627 -9.641 19.154 -7.438 19.625 C-6.24 19.885 -5.042 20.146 -3.809 20.414 C-2.882 20.607 -1.955 20.801 -1 21 C-1.321 13.788 -2.742 9.258 -8 4 C-7.34 3.67 -6.68 3.34 -6 3 C-5.237 3.784 -4.474 4.567 -3.688 5.375 C-1.091 8.073 -1.091 8.073 2 10 C1.67 9.093 1.34 8.185 1 7.25 C0 4 0 4 0 0 Z " fill="#32322F" transform="translate(464,236)"/>
<path d="M0 0 C5.898 0.159 11.15 2.349 16.625 4.375 C17.728 4.737 18.832 5.099 19.969 5.473 C27.664 8.125 32.985 11.502 38.625 17.375 C36.645 18.365 36.645 18.365 34.625 19.375 C33.656 18.529 32.686 17.684 31.688 16.812 C21.092 8.894 7.315 5.349 -5.375 2.375 C-3.375 0.375 -3.375 0.375 0 0 Z " fill="#3D3D3D" transform="translate(428.375,218.625)"/>
<path d="M0 0 C13.491 -0.093 26.981 -0.164 40.472 -0.207 C46.737 -0.228 53.001 -0.256 59.265 -0.302 C65.308 -0.345 71.35 -0.369 77.394 -0.38 C79.701 -0.387 82.009 -0.401 84.317 -0.423 C87.544 -0.452 90.771 -0.456 93.999 -0.454 C94.957 -0.468 95.915 -0.483 96.902 -0.498 C103.309 -0.458 103.309 -0.458 106.597 1.719 C108.236 4.383 108.486 5.84 108.454 8.952 C108.454 9.933 108.453 10.914 108.453 11.924 C108.433 12.975 108.412 14.026 108.391 15.109 C108.385 16.191 108.379 17.273 108.373 18.388 C108.351 21.842 108.301 25.296 108.25 28.75 C108.23 31.092 108.212 33.435 108.195 35.777 C108.151 41.519 108.084 47.259 108 53 C107.67 53 107.34 53 107 53 C106.994 52.405 106.988 51.811 106.982 51.198 C106.918 45.017 106.834 38.837 106.738 32.657 C106.704 30.349 106.676 28.042 106.654 25.734 C106.62 22.42 106.568 19.107 106.512 15.793 C106.505 14.759 106.499 13.724 106.492 12.658 C106.473 11.697 106.453 10.737 106.432 9.747 C106.421 8.901 106.41 8.055 106.399 7.183 C105.901 4.457 105.148 3.712 103 2 C100.983 1.544 100.983 1.544 98.729 1.601 C97.858 1.589 96.987 1.576 96.09 1.563 C95.138 1.565 94.186 1.566 93.204 1.568 C91.697 1.552 91.697 1.552 90.159 1.537 C86.831 1.507 83.504 1.497 80.176 1.488 C77.871 1.471 75.566 1.453 73.261 1.434 C67.19 1.386 61.118 1.357 55.047 1.33 C48.854 1.301 42.66 1.254 36.467 1.209 C24.311 1.123 12.156 1.056 0 1 C0 0.67 0 0.34 0 0 Z " fill="#0A0A09" transform="translate(166,158)"/>
<path d="M0 0 C12.326 3.545 22.502 13.717 32 22 C33.436 23.23 34.874 24.46 36.312 25.688 C37.199 26.451 38.086 27.214 39 28 C36.19 29.405 34.98 28.958 32 28 C30.011 26.383 28.245 24.796 26.438 23 C17.855 14.829 8.93 7.812 -2 3 C-1.34 2.01 -0.68 1.02 0 0 Z " fill="#444444" transform="translate(333,151)"/>
<path d="M0 0 C2 1 2 1 3 2 C5.328 2.368 7.662 2.702 10 3 C10 3.33 10 3.66 10 4 C-35.54 4 -81.08 4 -128 4 C-128 3.67 -128 3.34 -128 3 C-127.352 2.997 -126.705 2.993 -126.038 2.99 C-110.298 2.909 -94.558 2.817 -78.819 2.712 C-71.207 2.662 -63.595 2.616 -55.984 2.578 C-49.351 2.545 -42.719 2.505 -36.086 2.457 C-32.573 2.432 -29.06 2.41 -25.546 2.397 C-21.628 2.381 -17.711 2.351 -13.793 2.319 C-12.622 2.317 -11.451 2.315 -10.245 2.312 C-9.182 2.301 -8.119 2.29 -7.024 2.278 C-6.097 2.273 -5.169 2.267 -4.214 2.262 C-1.795 2.207 -1.795 2.207 0 0 Z " fill="#0C0C0A" transform="translate(354,308)"/>
<path d="M0 0 C1.938 1.125 1.938 1.125 3 3 C3.42 6.292 3.295 8.34 1.938 11.375 C0 13 0 13 -3.438 13.562 C-7 13 -7 13 -9.5 10.812 C-11 8 -11 8 -10.938 5.375 C-8.703 -0.285 -5.96 -0.639 0 0 Z " fill="#61615F" transform="translate(113,303)"/>
<path d="M0 0 C6.409 4.565 12.219 9.669 18 15 C16.478 17.629 15.156 19.844 13 22 C11.171 20.307 9.363 18.598 7.562 16.875 C7.046 16.401 6.53 15.926 5.998 15.438 C2.563 12.115 1.276 9.776 1 5 C0.34 5 -0.32 5 -1 5 C-1.33 3.68 -1.66 2.36 -2 1 C-1.34 0.67 -0.68 0.34 0 0 Z " fill="#F0F0F0" transform="translate(383,195)"/>
<path d="M0 0 C3.125 0.375 3.125 0.375 5.5 2 C7.589 5.053 7.666 6.745 7.125 10.375 C6.062 12.25 6.062 12.25 4.125 13.375 C0.688 13.938 0.688 13.938 -2.875 13.375 C-5.438 10.688 -5.438 10.688 -6.875 7.375 C-5.908 3.122 -4.506 0.588 0 0 Z " fill="#3C3D3A" transform="translate(395.875,302.625)"/>
<path d="M0 0 C0.33 0 0.66 0 1 0 C1.004 1.069 1.004 1.069 1.008 2.16 C1.268 8.614 2.121 12.233 6.723 16.855 C7.144 17.233 7.566 17.611 8 18 C7.34 18.33 6.68 18.66 6 19 C6.005 19.643 6.01 20.286 6.016 20.949 C6.168 42.547 6.168 42.547 5.75 52.188 C5.704 53.398 5.657 54.608 5.609 55.855 C4.896 59.536 3.543 61.299 1 64 C0.34 63.67 -0.32 63.34 -1 63 C-0.526 62.649 -0.051 62.299 0.438 61.938 C6.233 54.751 4.099 35.82 4.188 26.625 C4.2 25.906 4.213 25.187 4.227 24.446 C4.234 20.732 4.117 19.175 2 16 C1.34 24.91 0.68 33.82 0 43 C-0.33 43 -0.66 43 -1 43 C-1.029 39.521 -1.047 36.042 -1.062 32.562 C-1.071 31.589 -1.079 30.615 -1.088 29.611 C-1.108 23.652 -0.776 17.909 0 12 C-0.66 11.67 -1.32 11.34 -2 11 C-1.34 7.37 -0.68 3.74 0 0 Z " fill="#A9A9A9" transform="translate(24,197)"/>
<path d="M0 0 C1.011 0.083 2.021 0.165 3.062 0.25 C3.723 1.24 4.382 2.23 5.062 3.25 C7.625 3.98 7.625 3.98 10.062 4.25 C10.062 5.57 10.062 6.89 10.062 8.25 C9.093 8.559 8.124 8.869 7.125 9.188 C4.222 9.945 4.222 9.945 3.062 11.25 C0.188 11.5 0.188 11.5 -2.938 11.25 C-4.5 9.875 -4.5 9.875 -5.938 8.25 C-8.537 7.06 -8.537 7.06 -10.938 6.25 C-10.608 5.26 -10.277 4.27 -9.938 3.25 C-6.938 2.125 -6.938 2.125 -3.938 1.25 C-2.938 0.25 -2.938 0.25 0 0 Z " fill="#242521" transform="translate(302.9375,229.75)"/>
<path d="M0 0 C1.98 0 3.96 0 6 0 C6.66 1.32 7.32 2.64 8 4 C9.65 4 11.3 4 13 4 C13 5.32 13 6.64 13 8 C12.031 8.309 11.061 8.619 10.062 8.938 C7.159 9.695 7.159 9.695 6 11 C3.062 11.25 3.062 11.25 0 11 C-0.66 10.01 -1.32 9.02 -2 8 C-4.563 7.27 -4.563 7.27 -7 7 C-7 5.68 -7 4.36 -7 3 C-5.02 3 -3.04 3 -1 3 C-0.67 2.01 -0.34 1.02 0 0 Z " fill="#22221E" transform="translate(261,228)"/>
<path d="M0 0 C2.814 1.289 4.933 2.663 7.172 4.793 C7.75 5.338 8.328 5.882 8.924 6.443 C9.526 7.019 10.129 7.594 10.75 8.188 C12.004 9.369 13.26 10.55 14.516 11.73 C15.117 12.297 15.718 12.863 16.338 13.447 C21.386 18.164 26.672 22.605 32 27 C30.02 27.99 30.02 27.99 28 29 C16.272 18.35 16.272 18.35 12.438 14.375 C7.994 9.832 2.961 5.956 -2 2 C-1.34 1.34 -0.68 0.68 0 0 Z " fill="#3A3A38" transform="translate(344,171)"/>
<path d="M0 0 C5.997 1.248 9.143 3.408 13.438 7.688 C14.564 8.77 15.692 9.852 16.82 10.934 C17.361 11.458 17.901 11.983 18.458 12.523 C21.532 15.468 24.77 18.229 28 21 C27.67 22.65 27.34 24.3 27 26 C23.379 22.97 19.871 19.932 16.562 16.562 C12 11.928 7.15 7.658 2 3.688 C1.34 3.131 0.68 2.574 0 2 C0 1.34 0 0.68 0 0 Z " fill="#EBEBEB" transform="translate(355,173)"/>
<path d="M0 0 C19.286 0.363 34.086 6.878 48 20 C49.683 21.525 51.371 23.046 53.062 24.562 C54.283 25.661 54.283 25.661 55.527 26.781 C59.339 30.202 63.168 33.603 67 37 C66.01 37.99 66.01 37.99 65 39 C64.227 38.215 63.453 37.43 62.656 36.621 C56.951 30.856 51.244 25.187 45 20 C44.221 19.332 43.443 18.665 42.641 17.977 C30.097 7.498 15.988 3.48 0 1 C0 0.67 0 0.34 0 0 Z " fill="#393938" transform="translate(306,153)"/>
<path d="M0 0 C0.33 0 0.66 0 1 0 C1.364 4.437 1.715 8.874 2.062 13.312 C2.166 14.575 2.27 15.838 2.377 17.139 C2.47 18.347 2.564 19.556 2.66 20.801 C2.749 21.916 2.838 23.032 2.93 24.181 C3 27 3 27 2 30 C-3.65 29.399 -8.662 27.925 -14 26 C-13.67 25.34 -13.34 24.68 -13 24 C-4.964 24.938 -4.964 24.938 -1 26 C-1.072 25.417 -1.144 24.835 -1.219 24.234 C-3.333 5.559 -3.333 5.559 0 0 Z " fill="#252523" transform="translate(339,198)"/>
<path d="M0 0 C0 0.66 0 1.32 0 2 C-0.634 2.504 -1.268 3.008 -1.922 3.527 C-5.024 7.218 -4.922 10.866 -5.25 15.562 C-5.322 16.459 -5.395 17.356 -5.469 18.28 C-5.666 20.852 -5.835 23.425 -6 26 C-6.097 27.183 -6.193 28.367 -6.293 29.586 C-6.341 30.527 -6.388 31.468 -6.438 32.438 C-6.497 33.611 -6.497 33.611 -6.559 34.809 C-5.119 40.455 1.495 43.986 6.062 47.188 C6.674 47.625 7.286 48.063 7.916 48.514 C10.846 50.588 13.716 52.534 17 54 C17 54.66 17 55.32 17 56 C11.846 54.591 8.174 52.304 3.938 49.188 C3.339 48.761 2.74 48.335 2.123 47.896 C-7.548 40.895 -7.548 40.895 -8.863 35.383 C-9.21 30.191 -8.7 25.041 -8.188 19.875 C-8.104 18.912 -8.021 17.949 -7.936 16.957 C-6.837 5.296 -6.837 5.296 -3.5 1.125 C-2 0 -2 0 0 0 Z " fill="#272727" transform="translate(48,158)"/>
<path d="M0 0 C3.155 0.769 4.586 1.33 6.312 4.125 C6.539 4.744 6.766 5.363 7 6 C2.25 5.125 2.25 5.125 0 4 C0.144 5.076 0.289 6.153 0.438 7.262 C2.865 26.054 2.865 26.054 2 34 C1.34 34.66 0.68 35.32 0 36 C-0.505 31.459 -1.003 26.917 -1.5 22.375 C-1.643 21.09 -1.786 19.805 -1.934 18.48 C-2.069 17.237 -2.204 15.993 -2.344 14.711 C-2.469 13.569 -2.595 12.428 -2.725 11.251 C-3.254 5.004 -3.254 5.004 -3 2 C-2.01 1.34 -1.02 0.68 0 0 Z " fill="#212120" transform="translate(337,166)"/>
<path d="M0 0 C0.577 0.29 1.155 0.58 1.75 0.879 C9.347 4.664 16.695 7.145 25 9 C19.882 11.647 18.116 12.019 12 11 C15.63 14.96 19.26 18.92 23 23 C22.34 23.99 21.68 24.98 21 26 C20.553 25.42 20.105 24.84 19.645 24.242 C16.845 20.625 14.053 17.025 11.062 13.562 C9 11 9 11 9 9 C7.855 8.567 7.855 8.567 6.688 8.125 C4 7 4 7 1 5 C0.312 2.375 0.312 2.375 0 0 Z " fill="#434342" transform="translate(404,209)"/>
<path d="M0 0 C0.33 1.32 0.66 2.64 1 4 C1.66 4 2.32 4 3 4 C2.881 9.068 2.756 14.136 2.628 19.204 C2.585 20.923 2.543 22.643 2.503 24.362 C2.285 33.607 2.057 42.804 1 52 C0.67 52 0.34 52 0 52 C-0.17 47.006 -0.33 42.011 -0.482 37.016 C-0.535 35.324 -0.59 33.632 -0.648 31.94 C-1.014 21.209 -0.964 10.701 0 0 Z " fill="#181818" transform="translate(21,205)"/>
<path d="M0 0 C0.495 1.485 0.495 1.485 1 3 C12.88 3 24.76 3 37 3 C37 3.33 37 3.66 37 4 C25.12 4.33 13.24 4.66 1 5 C0.67 6.32 0.34 7.64 0 9 C0 7.68 0 6.36 0 5 C-11.88 5 -23.76 5 -36 5 C-36 4.67 -36 4.34 -36 4 C-18.675 3.505 -18.675 3.505 -1 3 C-0.67 2.01 -0.34 1.02 0 0 Z " fill="#424242" transform="translate(164,211)"/>
<path d="M0 0 C0.723 0.213 1.446 0.427 2.191 0.646 C4.273 1.301 4.273 1.301 7.625 2.688 C7.955 3.678 8.285 4.667 8.625 5.688 C2.743 5.122 -2.738 3.873 -8.453 2.387 C-12.096 1.515 -15.65 1.046 -19.375 0.688 C-19.375 0.028 -19.375 -0.632 -19.375 -1.312 C-12.647 -3.466 -6.494 -2.087 0 0 Z " fill="#3A3A39" transform="translate(325.375,147.3125)"/>
<path d="M0 0 C0.33 0 0.66 0 1 0 C1.073 1.174 1.073 1.174 1.148 2.371 C1.223 3.383 1.298 4.395 1.375 5.438 C1.445 6.447 1.514 7.456 1.586 8.496 C1.723 9.322 1.859 10.149 2 11 C2.66 11.33 3.32 11.66 4 12 C3.01 18.6 2.02 25.2 1 32 C0.67 32 0.34 32 0 32 C-0.33 35.96 -0.66 39.92 -1 44 C-1.33 44 -1.66 44 -2 44 C-2.412 29.275 -1.163 14.669 0 0 Z " fill="#5D5D5C" transform="translate(22,176)"/>
<path d="M0 0 C6.269 0.222 9.154 3.381 13.375 7.562 C14.016 8.178 14.656 8.794 15.316 9.428 C16.889 10.941 18.449 12.465 20 14 C19.67 15.32 19.34 16.64 19 18 C13.95 13.719 9.023 9.323 4.137 4.855 C2.14 2.967 2.14 2.967 0 2 C0 1.34 0 0.68 0 0 Z " fill="#474746" transform="translate(367,179)"/>
<path d="M0 0 C1.791 0.146 1.791 0.146 4.121 0.523 C4.975 0.657 5.829 0.792 6.709 0.93 C7.609 1.077 8.51 1.224 9.438 1.375 C16.28 2.476 23.095 3.386 30 4 C29.01 5.485 29.01 5.485 28 7 C3.921 5.646 3.921 5.646 0.168 2.43 C-0.217 1.958 -0.603 1.486 -1 1 C-0.67 0.67 -0.34 0.34 0 0 Z " fill="#20201F" transform="translate(341,225)"/>
<path d="M0 0 C4 2 4 2 5.75 3.25 C8.437 4.146 9.395 3.732 12.062 2.938 C14.16 2.316 14.16 2.316 16 2 C18 3.375 18 3.375 19 5 C18.67 5.66 18.34 6.32 18 7 C17.01 6.34 16.02 5.68 15 5 C14.01 5 13.02 5 12 5 C11.67 5.66 11.34 6.32 11 7 C10.34 7.66 9.68 8.32 9 9 C8.833 12.083 8.833 12.083 9 15 C4.992 11.326 2.44 7.879 0 3 C0 2.01 0 1.02 0 0 Z " fill="#3A3A38" transform="translate(78,319)"/>
<path d="M0 0 C0.33 0 0.66 0 1 0 C1.17 4.213 1.33 8.427 1.482 12.64 C1.535 14.069 1.59 15.497 1.648 16.926 C1.988 25.357 2.07 33.604 1 42 C0.34 42 -0.32 42 -1 42 C-1.025 37.144 -1.043 32.287 -1.055 27.431 C-1.06 25.781 -1.067 24.131 -1.075 22.482 C-1.088 20.101 -1.093 17.72 -1.098 15.34 C-1.103 14.61 -1.108 13.881 -1.113 13.129 C-1.114 8.651 -0.733 4.42 0 0 Z " fill="#737373" transform="translate(20,227)"/>
<path d="M0 0 C0.33 0.66 0.66 1.32 1 2 C2.32 2 3.64 2 5 2 C5.66 4.97 6.32 7.94 7 11 C3.728 10.551 0.457 10.091 -2.812 9.625 C-4.206 9.436 -4.206 9.436 -5.627 9.242 C-6.52 9.113 -7.412 8.984 -8.332 8.852 C-9.565 8.679 -9.565 8.679 -10.823 8.502 C-13 8 -13 8 -16 6 C-15.67 5.34 -15.34 4.68 -15 4 C-15.66 3.67 -16.32 3.34 -17 3 C-16.01 3 -15.02 3 -14 3 C-13.67 3.66 -13.34 4.32 -13 5 C-10.835 5.627 -8.641 6.154 -6.438 6.625 C-5.24 6.885 -4.042 7.146 -2.809 7.414 C-1.882 7.607 -0.955 7.801 0 8 C0 5.36 0 2.72 0 0 Z " fill="#2E2E2C" transform="translate(463,249)"/>
<path d="M0 0 C4.971 1.398 8.701 3.515 12.875 6.438 C13.468 6.833 14.061 7.228 14.672 7.635 C16.367 8.809 16.367 8.809 19 11 C19 11.99 19 12.98 19 14 C15.496 14 15.042 13.471 12.438 11.312 C7.956 7.799 3.15 5.385 -2 3 C-1.34 2.01 -0.68 1.02 0 0 Z " fill="#414140" transform="translate(333,151)"/>
<path d="M0 0 C1.938 0.625 1.938 0.625 4 2 C4.75 5.125 4.75 5.125 5 8 C3.35 8 1.7 8 0 8 C0.227 8.743 0.454 9.485 0.688 10.25 C1 13 1 13 -0.438 15.312 C-0.953 15.869 -1.469 16.426 -2 17 C-2 16.34 -2 15.68 -2 15 C-2.66 15 -3.32 15 -4 15 C-4 14.34 -4 13.68 -4 13 C-4.66 13 -5.32 13 -6 13 C-6 11.68 -6 10.36 -6 9 C-4.68 8.67 -3.36 8.34 -2 8 C-2 7.34 -2 6.68 -2 6 C-1.34 6 -0.68 6 0 6 C0 4.02 0 2.04 0 0 Z " fill="#31312F" transform="translate(414,282)"/>
<path d="M0 0 C2.104 -0.054 4.208 -0.093 6.312 -0.125 C8.07 -0.16 8.07 -0.16 9.863 -0.195 C13 0 13 0 16 2 C15.01 2.33 14.02 2.66 13 3 C13.062 4.176 13.062 4.176 13.125 5.375 C13 8 13 8 11 10 C9 9.875 9 9.875 7 9 C5.688 7.125 5.688 7.125 5 5 C5.33 4.01 5.66 3.02 6 2 C4.02 2.33 2.04 2.66 0 3 C0 2.01 0 1.02 0 0 Z M8 1 C12 2 12 2 12 2 Z " fill="#858584" transform="translate(387,289)"/>
<path d="M0 0 C3.671 1.606 6.487 3.889 9.562 6.438 C10.513 7.22 11.463 8.002 12.441 8.809 C14.391 10.478 16.23 12.146 18 14 C17.67 14.66 17.34 15.32 17 16 C12.773 14.601 10.165 12.601 6.938 9.562 C4.054 6.865 1.209 4.305 -2 2 C-1.34 1.34 -0.68 0.68 0 0 Z " fill="#EBEBEB" transform="translate(341,159)"/>
<path d="M0 0 C2.31 0.66 4.62 1.32 7 2 C7.042 4.333 7.041 6.667 7 9 C6 10 6 10 2.438 10.062 C1.303 10.042 0.169 10.021 -1 10 C-1.33 9.34 -1.66 8.68 -2 8 C-1.333 6.667 -0.667 5.333 0 4 C-0.33 3.34 -0.66 2.68 -1 2 C-0.67 1.34 -0.34 0.68 0 0 Z " fill="#232321" transform="translate(108,305)"/>
<path d="M0 0 C2 1.188 2 1.188 4 3 C4.25 5.688 4.25 5.688 4 8 C1 9 1 9 -2 8 C-3.666 7.961 -5.334 7.955 -7 8 C-6.875 5.688 -6.875 5.688 -6 3 C-2.938 1.188 -2.938 1.188 0 0 Z " fill="#1C1C18" transform="translate(93,323)"/>
<path d="M0 0 C2 1 2 1 3 2 C5.328 2.368 7.662 2.702 10 3 C10 3.33 10 3.66 10 4 C-8.15 4 -26.3 4 -45 4 C-45 3.67 -45 3.34 -45 3 C-43.708 2.98 -42.416 2.96 -41.084 2.94 C-36.302 2.864 -31.52 2.775 -26.738 2.683 C-24.666 2.644 -22.594 2.609 -20.522 2.578 C-17.549 2.533 -14.575 2.475 -11.602 2.414 C-10.206 2.397 -10.206 2.397 -8.783 2.379 C-7.922 2.359 -7.061 2.339 -6.174 2.319 C-5.035 2.299 -5.035 2.299 -3.873 2.278 C-1.757 2.154 -1.757 2.154 0 0 Z " fill="#0D0D0A" transform="translate(354,308)"/>
<path d="M0 0 C2 0 2 0 4.184 2.176 C5.113 3.108 6.042 4.04 7 5 C9.288 6.825 11.666 8.508 14.062 10.188 C14.674 10.625 15.286 11.063 15.916 11.514 C18.846 13.588 21.716 15.534 25 17 C25 17.66 25 18.32 25 19 C19.846 17.591 16.174 15.304 11.938 12.188 C11.339 11.761 10.74 11.335 10.123 10.896 C6.421 8.216 3.068 5.416 0 2 C0 1.34 0 0.68 0 0 Z " fill="#2C2C2C" transform="translate(40,195)"/>
<path d="M0 0 C0.66 0 1.32 0 2 0 C2.121 1.025 2.242 2.05 2.367 3.105 C2.536 4.466 2.705 5.827 2.875 7.188 C2.954 7.861 3.032 8.535 3.113 9.229 C3.605 13.103 4.36 16.451 6 20 C4.68 20 3.36 20 2 20 C-0.583 13.635 -1.71 7.885 -1 1 C-0.67 0.67 -0.34 0.34 0 0 Z " fill="#2D2D2D" transform="translate(297,194)"/>
<path d="M0 0 C-2.13 1.657 -4.231 3.135 -6.562 4.5 C-8.735 5.837 -10.3 7.121 -12 9 C-12.66 8.67 -13.32 8.34 -14 8 C-14 10.31 -14 12.62 -14 15 C-14.33 15 -14.66 15 -15 15 C-15.449 6.163 -15.449 6.163 -12 2 C-7.877 -1.435 -5.122 -1.105 0 0 Z " fill="#383838" transform="translate(39,145)"/>
<path d="M0 0 C4.051 0.527 5.862 2.55 8.625 5.438 C9.401 6.241 10.177 7.044 10.977 7.871 C11.644 8.574 12.312 9.276 13 10 C13.66 10.66 14.32 11.32 15 12 C13.188 12.644 13.188 12.644 11 13 C8.717 11.253 6.778 9.568 4.75 7.562 C4.196 7.033 3.641 6.504 3.07 5.959 C1.703 4.65 0.35 3.327 -1 2 C-0.67 1.34 -0.34 0.68 0 0 Z " fill="#3B3B3A" transform="translate(361,187)"/>
<path d="M0 0 C1.454 0.031 1.454 0.031 2.938 0.062 C3.562 2.938 3.562 2.938 3.938 6.062 C3.277 6.723 2.618 7.382 1.938 8.062 C-2.618 7.507 -2.618 7.507 -4.062 6.062 C-4.188 3.562 -4.188 3.562 -4.062 1.062 C-3.062 0.062 -3.062 0.062 0 0 Z " fill="#767675" transform="translate(383.0625,308.9375)"/>
<path d="M0 0 C4.03 0.117 7.542 0.742 11.312 2.25 C12.75 4.375 12.75 4.375 13.312 6.25 C6.737 5.63 0.646 4.101 -5.688 2.25 C-3.688 0.25 -3.688 0.25 0 0 Z " fill="#333333" transform="translate(428.6875,218.75)"/>
<path d="M0 0 C4.147 1.661 7.067 4.66 10.25 7.688 C11.404 8.77 12.559 9.852 13.715 10.934 C14.274 11.458 14.833 11.983 15.41 12.523 C18.537 15.427 21.761 18.221 25 21 C24.34 21.66 23.68 22.32 23 23 C22.227 22.215 21.453 21.43 20.656 20.621 C15.468 15.38 10.314 10.201 4.621 5.5 C2.809 3.823 1.425 2.01 0 0 Z " fill="#2C2C2B" transform="translate(348,169)"/>
<path d="M0 0 C2.5 0.125 2.5 0.125 3.5 1.125 C3.541 3.125 3.543 5.125 3.5 7.125 C1.188 7.75 1.188 7.75 -1.5 8.125 C-2.49 7.465 -3.48 6.805 -4.5 6.125 C-3.431 0.172 -3.431 0.172 0 0 Z " fill="#6D6D6D" transform="translate(123.5,308.875)"/>
<path d="M0 0 C4.304 1.983 7.312 4.797 10.75 8 C11.352 8.547 11.954 9.093 12.574 9.656 C14.092 11.06 15.551 12.526 17 14 C17 14.66 17 15.32 17 16 C12.763 14.623 10.418 12.721 7.375 9.5 C4.958 6.959 2.93 4.953 0 3 C0 2.01 0 1.02 0 0 Z " fill="#EBEBEA" transform="translate(361,183)"/>
<path d="M0 0 C2.438 0.188 2.438 0.188 3.438 1.188 C3.625 3.625 3.625 3.625 3.438 6.188 C2.777 6.848 2.118 7.507 1.438 8.188 C-1.188 7.812 -1.188 7.812 -3.562 7.188 C-4.188 4.812 -4.188 4.812 -4.562 2.188 C-2.562 0.188 -2.562 0.188 0 0 Z " fill="#626262" transform="translate(410.5625,308.8125)"/>
<path d="M0 0 C2.625 0.375 2.625 0.375 5 1 C5.625 3.375 5.625 3.375 6 6 C5.34 6.66 4.68 7.32 4 8 C1.375 7.625 1.375 7.625 -1 7 C-1.625 4.625 -1.625 4.625 -2 2 C-1.34 1.34 -0.68 0.68 0 0 Z " fill="#848483" transform="translate(113,319)"/>
<path d="M0 0 C0.625 1.812 0.625 1.812 1 4 C0.01 5.485 0.01 5.485 -1 7 C-3.97 6.505 -3.97 6.505 -7 6 C-7 4.02 -7 2.04 -7 0 C-4.333 -1.333 -2.833 -0.671 0 0 Z " fill="#757573" transform="translate(406,320)"/>
<path d="M0 0 C9.396 -0.107 18.641 0.007 28 1 C28 1.33 28 1.66 28 2 C21.655 2.739 15.322 3.145 8.938 3.25 C7.033 3.289 7.033 3.289 5.09 3.328 C4.07 3.22 3.051 3.112 2 3 C1.34 2.01 0.68 1.02 0 0 Z " fill="#6D6D6C" transform="translate(282,143)"/>
<path d="M0 0 C2.625 0.375 2.625 0.375 5 1 C5.625 3.375 5.625 3.375 6 6 C5.34 6.66 4.68 7.32 4 8 C1.375 7.625 1.375 7.625 -1 7 C-1.625 4.625 -1.625 4.625 -2 2 C-1.34 1.34 -0.68 0.68 0 0 Z " fill="#717171" transform="translate(101,319)"/>
<path d="M0 0 C2.97 0.495 2.97 0.495 6 1 C6 2.98 6 4.96 6 7 C3.688 7.688 3.688 7.688 1 8 C-0.812 6.562 -0.812 6.562 -2 5 C-1.34 3.35 -0.68 1.7 0 0 Z " fill="#717170" transform="translate(388,319)"/>
<path d="M0 0 C2.625 -0.188 2.625 -0.188 5 0 C5.688 2.312 5.688 2.312 6 5 C4.812 6.875 4.812 6.875 3 8 C0.812 7.688 0.812 7.688 -1 7 C-1.625 5.188 -1.625 5.188 -2 3 C-1.34 2.01 -0.68 1.02 0 0 Z " fill="#E2E2E2" transform="translate(383,297)"/>
<path d="M0 0 C2.375 -0.125 2.375 -0.125 5 0 C5.66 0.66 6.32 1.32 7 2 C6.625 4.625 6.625 4.625 6 7 C2.25 8.125 2.25 8.125 0 7 C-1.262 2.525 -1.262 2.525 0 0 Z " fill="#BFBFBF" transform="translate(117,297)"/>
<path d="M0 0 C2.438 0.188 2.438 0.188 3.438 1.188 C3.478 3.187 3.48 5.188 3.438 7.188 C1.625 7.812 1.625 7.812 -0.562 8.188 C-3.562 6.188 -3.562 6.188 -4.375 4.188 C-4.437 3.527 -4.499 2.868 -4.562 2.188 C-2.562 0.188 -2.562 0.188 0 0 Z " fill="#969695" transform="translate(95.5625,308.8125)"/>
<path d="M0 0 C2.5 0.125 2.5 0.125 3.5 1.125 C3.541 2.791 3.543 4.459 3.5 6.125 C1.52 7.115 1.52 7.115 -0.5 8.125 C-1.49 7.465 -2.48 6.805 -3.5 6.125 C-3.75 3.562 -3.75 3.562 -3.5 1.125 C-2.5 0.125 -2.5 0.125 0 0 Z " fill="#E4E4E4" transform="translate(407.5,296.875)"/>
<path d="M0 0 C1.98 0 3.96 0 6 0 C6.688 2.312 6.688 2.312 7 5 C5.562 6.812 5.562 6.812 4 8 C2.062 7.25 2.062 7.25 0 6 C-0.812 4 -0.812 4 -1 2 C-0.67 1.34 -0.34 0.68 0 0 Z " fill="#636363" transform="translate(106,291)"/>
<path d="M0 0 C0.33 0 0.66 0 1 0 C1 4.95 1 9.9 1 15 C1.66 15 2.32 15 3 15 C2.67 15.66 2.34 16.32 2 17 C0.062 16.188 0.062 16.188 -2 15 C-3.149 11.554 -2.804 9.901 -2.125 6.375 C-1.942 5.393 -1.759 4.41 -1.57 3.398 C-1 1 -1 1 0 0 Z " fill="#313131" transform="translate(472,259)"/>
<path d="M0 0 C5.292 1.401 7.775 4.855 11 9 C8.938 9.875 8.938 9.875 6 10 C3.41 8.261 1.209 6.196 -1 4 C-0.67 2.68 -0.34 1.36 0 0 Z " fill="#565656" transform="translate(456,228)"/>
<path d="M0 0 C0.33 0 0.66 0 1 0 C1.66 2.64 2.32 5.28 3 8 C-2.65 7.399 -7.662 5.925 -13 4 C-12.67 3.34 -12.34 2.68 -12 2 C-3.429 3 -3.429 3 0 4 C0 2.68 0 1.36 0 0 Z " fill="#282827" transform="translate(338,220)"/>
<path d="M0 0 C6.104 1.246 9.548 3.697 14 8 C13.01 8.33 12.02 8.66 11 9 C10.67 9.66 10.34 10.32 10 11 C9.446 10.434 8.891 9.868 8.32 9.285 C7.596 8.552 6.871 7.818 6.125 7.062 C5.406 6.332 4.686 5.601 3.945 4.848 C2.13 2.943 2.13 2.943 0 2 C0 1.34 0 0.68 0 0 Z " fill="#E6E6E6" transform="translate(355,173)"/>
<path d="M0 0 C0.99 0.33 1.98 0.66 3 1 C2.913 3.105 2.805 5.209 2.688 7.312 C2.629 8.484 2.571 9.656 2.512 10.863 C1.984 14.098 1.576 15.087 -1 17 C-1.105 11.214 -0.993 5.707 0 0 Z " fill="#171716" transform="translate(25,153)"/>
<path d="M0 0 C2.625 -0.188 2.625 -0.188 5 0 C6.125 4.75 6.125 4.75 5 7 C3.35 7 1.7 7 0 7 C-0.66 5.68 -1.32 4.36 -2 3 C-1.34 2.01 -0.68 1.02 0 0 Z " fill="#727272" transform="translate(96,297)"/>
<path d="M0 0 C0.33 1.32 0.66 2.64 1 4 C1.66 4 2.32 4 3 4 C3.383 13.764 3.383 13.764 1 18 C0.34 18.33 -0.32 18.66 -1 19 C-0.67 12.73 -0.34 6.46 0 0 Z " fill="#252525" transform="translate(21,205)"/>
<path d="M0 0 C3.128 0.78 6.252 1.576 9.375 2.375 C10.709 2.708 10.709 2.708 12.07 3.047 C12.921 3.266 13.772 3.485 14.648 3.711 C15.434 3.91 16.219 4.109 17.029 4.314 C19 5 19 5 21 7 C20.322 6.867 19.644 6.734 18.945 6.598 C12.642 5.402 6.394 4.527 0 4 C0 2.68 0 1.36 0 0 Z " fill="#292A28" transform="translate(436,233)"/>
<path d="M0 0 C0.33 0 0.66 0 1 0 C2.225 5.666 2.092 11.237 2 17 C1.34 17.33 0.68 17.66 0 18 C-0.888 14.194 -1.135 10.655 -1.125 6.75 C-1.128 5.693 -1.13 4.636 -1.133 3.547 C-1 1 -1 1 0 0 Z " fill="#202020" transform="translate(296,177)"/>
<path d="M0 0 C3.155 0.769 4.586 1.33 6.312 4.125 C6.539 4.744 6.766 5.363 7 6 C2.25 5.125 2.25 5.125 0 4 C-0.33 5.32 -0.66 6.64 -1 8 C-1.66 7.67 -2.32 7.34 -3 7 C-3.188 4.625 -3.188 4.625 -3 2 C-2.01 1.34 -1.02 0.68 0 0 Z " fill="#1A1A19" transform="translate(337,166)"/>
<path d="M0 0 C3.96 1.32 7.92 2.64 12 4 C11.34 5.32 10.68 6.64 10 8 C9.113 7.526 8.226 7.051 7.312 6.562 C4.43 5.203 2.124 4.459 -1 4 C-0.67 2.68 -0.34 1.36 0 0 Z " fill="#30302F" transform="translate(325,161)"/>
<path d="M0 0 C0.908 0.103 1.815 0.206 2.75 0.312 C2.75 0.642 2.75 0.973 2.75 1.312 C1.1 1.312 -0.55 1.312 -2.25 1.312 C-1.26 2.962 -0.27 4.613 0.75 6.312 C-2.715 7.798 -2.715 7.798 -6.25 9.312 C-7 7.625 -7 7.625 -7.25 5.312 C-5.168 1.649 -4.276 0.411 0 0 Z " fill="#595957" transform="translate(396.25,302.6875)"/>
<path d="M0 0 C4.72 2.299 4.72 2.299 6 5.5 C6 8 6 8 4.562 9.812 C4.047 10.204 3.531 10.596 3 11 C0 4.5 0 4.5 0 0 Z " fill="#424242" transform="translate(464,236)"/>
<path d="M0 0 C7.59 0 15.18 0 23 0 C23 0.33 23 0.66 23 1 C13.595 1.495 13.595 1.495 4 2 C4 2.66 4 3.32 4 4 C2.68 4.33 1.36 4.66 0 5 C0 3.35 0 1.7 0 0 Z " fill="#222220" transform="translate(50,224)"/>
<path d="M0 0 C1.938 1.125 1.938 1.125 3 3 C3.188 6.188 3.188 6.188 3 9 C2.67 9 2.34 9 2 9 C1.67 7.35 1.34 5.7 1 4 C-2.3 3.67 -5.6 3.34 -9 3 C-9 2.34 -9 1.68 -9 1 C-5.95 -0.525 -3.358 -0.236 0 0 Z " fill="#6C6C6B" transform="translate(113,303)"/>
<path d="M0 0 C0.66 0 1.32 0 2 0 C2 0.66 2 1.32 2 2 C3.98 1.67 5.96 1.34 8 1 C8 2.32 8 3.64 8 5 C3.545 5.495 3.545 5.495 -1 6 C-0.67 4.02 -0.34 2.04 0 0 Z " fill="#242522" transform="translate(266,231)"/>
<path d="M0 0 C3 1 3 1 4 3 C4.406 11.391 4.406 11.391 2 15 C0.946 11.838 0.687 9.131 0.438 5.812 C0.312 4.182 0.312 4.182 0.184 2.52 C0.123 1.688 0.062 0.857 0 0 Z " fill="#262626" transform="translate(334,173)"/>
<path d="M0 0 C4.508 1.258 7.491 2.904 11 6 C8.311 7.008 6.583 7.227 3.887 6.176 C1.892 5.166 -0.065 4.119 -2 3 C-1.34 2.01 -0.68 1.02 0 0 Z " fill="#626262" transform="translate(333,151)"/>
<path d="M0 0 C3.333 1.667 6.667 3.333 10 5 C9.34 6.32 8.68 7.64 8 9 C3.155 6.622 3.155 6.622 1 5 C0.062 2.25 0.062 2.25 0 0 Z " fill="#5C5C5A" transform="translate(404,209)"/>
<path d="M0 0 C3.599 0.556 4.999 1.749 7.25 4.562 C8.031 5.523 8.031 5.523 8.828 6.504 C9.215 6.998 9.602 7.491 10 8 C6 8 6 8 4.297 6.758 C3.786 6.219 3.276 5.68 2.75 5.125 C2.229 4.591 1.708 4.058 1.172 3.508 C0 2 0 2 0 0 Z " fill="#232322" transform="translate(352,179)"/>
<path d="M0 0 C1.65 0.33 3.3 0.66 5 1 C5 2.32 5 3.64 5 5 C3.125 5.625 3.125 5.625 1 6 C0.34 5.34 -0.32 4.68 -1 4 C-0.625 1.875 -0.625 1.875 0 0 Z " fill="#1F201B" transform="translate(436,237)"/>
<path d="M0 0 C0.99 0.33 1.98 0.66 3 1 C3 4.3 3 7.6 3 11 C2.01 11.33 1.02 11.66 0 12 C0 8.04 0 4.08 0 0 Z " fill="#141412" transform="translate(23,176)"/>
<path d="M0 0 C4.455 1.98 4.455 1.98 9 4 C8.67 4.99 8.34 5.98 8 7 C3.25 6.125 3.25 6.125 1 5 C0.375 2.438 0.375 2.438 0 0 Z " fill="#EFEFEF" transform="translate(332,154)"/>
<path d="M0 0 C2.475 0.99 2.475 0.99 5 2 C4.67 3.65 4.34 5.3 4 7 C3.34 7 2.68 7 2 7 C1.67 7.66 1.34 8.32 1 9 C-1.092 4.569 -1.092 4.569 -0.625 1.688 C-0.419 1.131 -0.212 0.574 0 0 Z " fill="#1B1B19" transform="translate(410,281)"/>
<path d="M0 0 C6.625 -0.125 6.625 -0.125 10 1 C10 1.99 10 2.98 10 4 C7.03 3.67 4.06 3.34 1 3 C0.67 2.01 0.34 1.02 0 0 Z " fill="#262624" transform="translate(315,160)"/>
<path d="M0 0 C0.33 0 0.66 0 1 0 C1.049 0.782 1.098 1.565 1.148 2.371 C1.223 3.383 1.298 4.395 1.375 5.438 C1.445 6.447 1.514 7.456 1.586 8.496 C1.723 9.322 1.859 10.149 2 11 C2.66 11.33 3.32 11.66 4 12 C3.34 13.98 2.68 15.96 2 18 C0 16 0 16 -0.195 12.305 C-0.182 10.828 -0.158 9.351 -0.125 7.875 C-0.111 6.744 -0.111 6.744 -0.098 5.59 C-0.074 3.726 -0.038 1.863 0 0 Z " fill="#71716F" transform="translate(22,176)"/>
<path d="M0 0 C3.63 0.33 7.26 0.66 11 1 C10.01 2.485 10.01 2.485 9 4 C5.375 4.188 5.375 4.188 2 4 C1.34 2.68 0.68 1.36 0 0 Z " fill="#313131" transform="translate(360,228)"/>
<path d="M0 0 C2.884 1.293 4.872 2.659 7 5 C6.01 5.66 5.02 6.32 4 7 C2.02 5.68 0.04 4.36 -2 3 C-1.34 2.01 -0.68 1.02 0 0 Z " fill="#EBEBEA" transform="translate(341,159)"/>
<path d="M0 0 C0.99 0.66 1.98 1.32 3 2 C2.34 2.66 1.68 3.32 1 4 C1 4.99 1 5.98 1 7 C-0.65 7 -2.3 7 -4 7 C-3.688 4.625 -3.688 4.625 -3 2 C-2.01 1.34 -1.02 0.68 0 0 Z " fill="#1A1B17" transform="translate(90,324)"/>
<path d="M0 0 C0.536 0.371 1.073 0.743 1.625 1.125 C1.625 2.115 1.625 3.105 1.625 4.125 C0.635 3.465 -0.355 2.805 -1.375 2.125 C-2.365 2.125 -3.355 2.125 -4.375 2.125 C-4.705 2.785 -5.035 3.445 -5.375 4.125 C-6.365 4.125 -7.355 4.125 -8.375 4.125 C-8.375 3.135 -8.375 2.145 -8.375 1.125 C-2.96 -1.09 -2.96 -1.09 0 0 Z " fill="#5A5A58" transform="translate(94.375,321.875)"/>
<path d="M0 0 C0.66 1.32 1.32 2.64 2 4 C-1.269 5.031 -3.86 4.964 -7.25 4.562 C-8.142 4.461 -9.034 4.359 -9.953 4.254 C-10.629 4.17 -11.304 4.086 -12 4 C-12 3.67 -12 3.34 -12 3 C-9.03 3 -6.06 3 -3 3 C-3 2.34 -3 1.68 -3 1 C-2.01 0.67 -1.02 0.34 0 0 Z " fill="#2C2C2A" transform="translate(116,273)"/>
<path d="M0 0 C0.33 0 0.66 0 1 0 C1.042 2.333 1.041 4.667 1 7 C0.67 7.33 0.34 7.66 0 8 C-0.231 9.347 -0.412 10.704 -0.562 12.062 C-0.707 13.362 -0.851 14.661 -1 16 C-1.33 16 -1.66 16 -2 16 C-2.054 14.084 -2.093 12.167 -2.125 10.25 C-2.148 9.183 -2.171 8.115 -2.195 7.016 C-2.005 4.075 -1.527 2.476 0 0 Z " fill="#40403F" transform="translate(339,198)"/>
<path d="M0 0 C2 3 2 3 1.688 5.375 C1.461 6.241 1.234 7.107 1 8 C0.814 8.928 0.629 9.856 0.438 10.812 C0.293 11.534 0.149 12.256 0 13 C-0.33 13 -0.66 13 -1 13 C-1.027 11.021 -1.046 9.042 -1.062 7.062 C-1.074 5.96 -1.086 4.858 -1.098 3.723 C-1 1 -1 1 0 0 Z " fill="#343433" transform="translate(295,170)"/>
<path d="M0 0 C2.64 0 5.28 0 8 0 C8 0.99 8 1.98 8 3 C5.03 3 2.06 3 -1 3 C-0.67 2.01 -0.34 1.02 0 0 Z " fill="#1E1E1C" transform="translate(307,159)"/>
<path d="M0 0 C3.161 1.37 3.993 1.989 6 5 C5.625 7.688 5.625 7.688 5 10 C2.661 7.873 1.193 5.938 0 3 C0 2.01 0 1.02 0 0 Z " fill="#686866" transform="translate(78,319)"/>
<path d="M0 0 C0.33 0.66 0.66 1.32 1 2 C0.67 2.66 0.34 3.32 0 4 C1.32 4 2.64 4 4 4 C4.33 3.34 4.66 2.68 5 2 C5.33 3.32 5.66 4.64 6 6 C4.188 6.625 4.188 6.625 2 7 C1.01 6.34 0.02 5.68 -1 5 C-0.67 3.35 -0.34 1.7 0 0 Z " fill="#848484" transform="translate(407,310)"/>
<path d="M0 0 C1.98 0 3.96 0 6 0 C6 1.32 6 2.64 6 4 C4.02 4 2.04 4 0 4 C0 2.68 0 1.36 0 0 Z " fill="#21211F" transform="translate(254,231)"/>
<path d="M0 0 C0.66 0 1.32 0 2 0 C1.25 7.625 1.25 7.625 -1 11 C-1.027 9.354 -1.046 7.708 -1.062 6.062 C-1.074 5.146 -1.086 4.229 -1.098 3.285 C-1 1 -1 1 0 0 Z " fill="#3E3E3E" transform="translate(297,194)"/>
<path d="M0 0 C1.98 0.495 1.98 0.495 4 1 C4 2.32 4 3.64 4 5 C2.35 4.67 0.7 4.34 -1 4 C-0.67 2.68 -0.34 1.36 0 0 Z " fill="#222222" transform="translate(406,298)"/>
<path d="M0 0 C4.455 0.99 4.455 0.99 9 2 C8.34 2.66 7.68 3.32 7 4 C3.375 3.625 3.375 3.625 0 3 C0 2.01 0 1.02 0 0 Z " fill="#1C1C1A" transform="translate(341,225)"/>
<path d="M0 0 C0.33 1.32 0.66 2.64 1 4 C1.66 4 2.32 4 3 4 C3 5.98 3 7.96 3 10 C2.01 10 1.02 10 0 10 C0 6.7 0 3.4 0 0 Z " fill="#101010" transform="translate(21,205)"/>
<path d="M0 0 C2 1 4 2 6 3 C5.34 4.32 4.68 5.64 4 7 C2.35 5.02 0.7 3.04 -1 1 C-0.67 0.67 -0.34 0.34 0 0 Z " fill="#F0F0F0" transform="translate(347,164)"/>
<path d="M0 0 C0.33 0 0.66 0 1 0 C1.054 1.937 1.093 3.875 1.125 5.812 C1.148 6.891 1.171 7.97 1.195 9.082 C1 12 1 12 -1 15 C-1.66 15 -2.32 15 -3 15 C-2.67 13.68 -2.34 12.36 -2 11 C-1.34 11 -0.68 11 0 11 C0 7.37 0 3.74 0 0 Z " fill="#0F0F0D" transform="translate(164,294)"/>
<path d="M0 0 C1.98 0.495 1.98 0.495 4 1 C3.67 2.32 3.34 3.64 3 5 C1.68 5 0.36 5 -1 5 C-0.67 3.35 -0.34 1.7 0 0 Z " fill="#20201F" transform="translate(384,298)"/>
<path d="M0 0 C2.97 0.495 2.97 0.495 6 1 C6.33 2.32 6.66 3.64 7 5 C6.01 5 5.02 5 4 5 C1.812 2.5 1.812 2.5 0 0 Z " fill="#353533" transform="translate(380,191)"/>
<path d="M0 0 C3.571 1.879 5.547 3.171 7 7 C6.34 7.66 5.68 8.32 5 9 C4.381 8.051 3.762 7.102 3.125 6.125 C1.18 3.056 1.18 3.056 -1 1 C-0.67 0.67 -0.34 0.34 0 0 Z " fill="#3D3D3D" transform="translate(457,239)"/>
<path d="M0 0 C2.97 0.33 5.94 0.66 9 1 C5 3 5 3 2 4 C1.01 3.67 0.02 3.34 -1 3 C-0.67 2.01 -0.34 1.02 0 0 Z " fill="#595959" transform="translate(420,217)"/>
<path d="M0 0 C2.062 0.438 2.062 0.438 4 1 C4.33 2.32 4.66 3.64 5 5 C3.125 4.688 3.125 4.688 1 4 C0.34 3.01 -0.32 2.02 -1 1 C-0.67 0.67 -0.34 0.34 0 0 Z " fill="#383836" transform="translate(361,187)"/>
<path d="M0 0 C3.875 1.75 3.875 1.75 5 4 C5.07 5.707 5.084 7.417 5.062 9.125 C5.053 10.035 5.044 10.945 5.035 11.883 C5.024 12.581 5.012 13.28 5 14 C4.67 14 4.34 14 4 14 C3.963 13.385 3.925 12.77 3.887 12.137 C3.821 11.328 3.755 10.52 3.688 9.688 C3.629 8.887 3.571 8.086 3.512 7.262 C2.912 4.613 1.964 3.795 0 2 C0 1.34 0 0.68 0 0 Z " fill="#2E2E2E" transform="translate(269,158)"/>
<path d="M0 0 C1.65 0.33 3.3 0.66 5 1 C5.33 1.99 5.66 2.98 6 4 C3.36 3.67 0.72 3.34 -2 3 C-1.34 2.67 -0.68 2.34 0 2 C0 1.34 0 0.68 0 0 Z " fill="#444444" transform="translate(328,149)"/>
<path d="M0 0 C2 1 2 1 3 2 C5.328 2.368 7.662 2.702 10 3 C10 3.33 10 3.66 10 4 C8.376 4.081 6.75 4.139 5.125 4.188 C4.22 4.222 3.315 4.257 2.383 4.293 C1.203 4.148 1.203 4.148 0 4 C-0.66 3.01 -1.32 2.02 -2 1 C-1.34 0.67 -0.68 0.34 0 0 Z " fill="#141411" transform="translate(354,308)"/>
<path d="M0 0 C4.75 0.75 4.75 0.75 7 3 C5.35 3.66 3.7 4.32 2 5 C1.34 4.34 0.68 3.68 0 3 C0.33 2.67 0.66 2.34 1 2 C0.67 1.34 0.34 0.68 0 0 Z " fill="#585857" transform="translate(440,222)"/>
<path d="M0 0 C2.31 1.65 4.62 3.3 7 5 C4.333 6.333 2.833 5.671 0 5 C0 3.333 0 1.667 0 0 Z " fill="#737372" transform="translate(365,174)"/>
<path d="M0 0 C1.875 0.312 1.875 0.312 4 1 C4.66 1.99 5.32 2.98 6 4 C3.69 3.67 1.38 3.34 -1 3 C-0.67 2.01 -0.34 1.02 0 0 Z " fill="#4C4C4C" transform="translate(352,164)"/>
<path d="M0 0 C0.99 1.32 1.98 2.64 3 4 C2.01 4.495 2.01 4.495 1 5 C0.34 4.67 -0.32 4.34 -1 4 C-1 6.31 -1 8.62 -1 11 C-1.33 11 -1.66 11 -2 11 C-2.25 3.375 -2.25 3.375 0 0 Z " fill="#707070" transform="translate(26,149)"/>
<path d="M0 0 C1 4 1 4 0 7 C-1.65 7 -3.3 7 -5 7 C-3.35 4.69 -1.7 2.38 0 0 Z " fill="#828281" transform="translate(413,319)"/>
<path d="M0 0 C2.31 1.98 4.62 3.96 7 6 C6.01 7.485 6.01 7.485 5 9 C4.161 7.879 3.329 6.753 2.5 5.625 C2.036 4.999 1.572 4.372 1.094 3.727 C0 2 0 2 0 0 Z " fill="#464646" transform="translate(420,226)"/>
<path d="M0 0 C0 1.32 0 2.64 0 4 C-2.31 3.34 -4.62 2.68 -7 2 C-4 0 -4 0 0 0 Z " fill="#2D2D2C" transform="translate(450,225)"/>
<path d="M0 0 C0.33 0 0.66 0 1 0 C1.66 2.64 2.32 5.28 3 8 C0.03 7.505 0.03 7.505 -3 7 C-2.34 6.67 -1.68 6.34 -1 6 C-0.342 2.971 -0.342 2.971 0 0 Z " fill="#50504E" transform="translate(338,220)"/>
<path d="M0 0 C5.75 1.75 5.75 1.75 8 4 C7.34 4 6.68 4 6 4 C5.67 4.66 5.34 5.32 5 6 C3.35 4.02 1.7 2.04 0 0 Z " fill="#323231" transform="translate(346,175)"/>
<path d="M0 0 C4.875 2.625 4.875 2.625 6 6 C4.35 5.67 2.7 5.34 1 5 C0.67 3.35 0.34 1.7 0 0 Z " fill="#282826" transform="translate(338,166)"/>
<path d="M0 0 C1.65 0 3.3 0 5 0 C5.33 1.32 5.66 2.64 6 4 C5.01 4.33 4.02 4.66 3 5 C1.5 3.625 1.5 3.625 0 2 C0 1.34 0 0.68 0 0 Z " fill="#575756" transform="translate(370,329)"/>
<path d="M0 0 C1.32 0.66 2.64 1.32 4 2 C4 2.66 4 3.32 4 4 C2.35 4 0.7 4 -1 4 C-1 1 -1 1 0 0 Z " fill="#242522" transform="translate(397,311)"/>
<path d="M0 0 C1.65 0 3.3 0 5 0 C4.67 1.65 4.34 3.3 4 5 C2.68 4.34 1.36 3.68 0 3 C0 2.01 0 1.02 0 0 Z " fill="#1A1A19" transform="translate(93,311)"/>
<path d="M0 0 C1.98 0.495 1.98 0.495 4 1 C3.67 1.99 3.34 2.98 3 4 C1.68 4 0.36 4 -1 4 C-0.67 2.68 -0.34 1.36 0 0 Z " fill="#191919" transform="translate(119,299)"/>
<path d="M0 0 C0.66 0.66 1.32 1.32 2 2 C-0.354 3.429 -1.48 4.087 -4.25 3.625 C-4.827 3.419 -5.405 3.213 -6 3 C-3.864 0.864 -2.935 0.367 0 0 Z " fill="#1D1D1B" transform="translate(299,233)"/>
<path d="M0 0 C1.98 1.65 3.96 3.3 6 5 C5.34 5.66 4.68 6.32 4 7 C2.35 5.02 0.7 3.04 -1 1 C-0.67 0.67 -0.34 0.34 0 0 Z " fill="#494947" transform="translate(367,185)"/>
</svg>